<?xml version="1.0" encoding="utf-8"?>
<!-- Generator: Adobe Illustrator 16.0.0, SVG Export Plug-In . SVG Version: 6.00 Build 0)  -->
<!DOCTYPE svg PUBLIC "-//W3C//DTD SVG 1.1//EN" "http://www.w3.org/Graphics/SVG/1.1/DTD/svg11.dtd">
<svg version="1.1" id="Ebene_1" xmlns="http://www.w3.org/2000/svg" xmlns:xlink="http://www.w3.org/1999/xlink" x="0px" y="0px"
	 width="99.731px" height="113.666px" viewBox="0 0 99.731 113.666" enable-background="new 0 0 99.731 113.666"
	 xml:space="preserve">
<line fill="none" stroke="#010202" stroke-miterlimit="10" x1="40.34" y1="55.28" x2="40.34" y2="78.614"/>
<line fill="none" stroke="#010202" stroke-miterlimit="10" x1="40.34" y1="63.614" x2="57.006" y2="55.28"/>
<g>
	<g>
		<line fill="none" stroke="#010202" stroke-miterlimit="10" x1="40.34" y1="70.281" x2="50.272" y2="75.246"/>
		<g>
			<polygon fill="#010202" points="47.661,76.702 57.005,78.615 49.87,72.284 			"/>
		</g>
	</g>
</g>
<line fill="none" stroke="#010202" stroke-miterlimit="10" x1="76.841" y1="32.665" x2="76.841" y2="55.999"/>
<g>
	<g>
		<line fill="none" stroke="#010202" stroke-miterlimit="10" x1="83.18" y1="37.829" x2="93.507" y2="32.665"/>
		<g>
			<polygon fill="#010202" points="85.638,39.199 76.842,41 83.559,35.042 			"/>
		</g>
	</g>
</g>
<line fill="none" stroke="#000000" stroke-miterlimit="10" x1="93.237" y1="88.981" x2="57.005" y2="88.981"/>
<line fill="none" stroke="#000000" stroke-miterlimit="10" x1="57.005" y1="88.981" x2="57.005" y2="78.615"/>
<line fill="none" stroke="#000000" stroke-miterlimit="10" x1="40.34" y1="66.947" x2="17.069" y2="66.947"/>
<line fill="none" stroke="#000000" stroke-miterlimit="10" x1="57.006" y1="55.28" x2="57.006" y2="44.333"/>
<line fill="none" stroke="#000000" stroke-miterlimit="10" x1="57.006" y1="44.333" x2="76.84" y2="44.333"/>
<line fill="none" stroke="#000000" stroke-miterlimit="10" x1="93.507" y1="32.665" x2="93.507" y2="17.666"/>
<line fill="none" stroke="#000000" stroke-miterlimit="10" x1="93.507" y1="55.999" x2="93.507" y2="97.416"/>
<circle fill="#FFFFFF" stroke="#010202" stroke-miterlimit="10" cx="17.069" cy="66.947" r="3.333"/>
<circle fill="#FFFFFF" stroke="#010202" stroke-miterlimit="10" cx="93.507" cy="17.666" r="3.333"/>
<circle fill="#FFFFFF" stroke="#010202" stroke-miterlimit="10" cx="93.507" cy="97.416" r="3.333"/>
<text transform="matrix(1 0 0 1 88.834 9.999)" font-family="'Cambria'" font-size="12">C‘</text>
<text transform="matrix(1 0 0 1 0 70.2808)" font-family="'Cambria'" font-size="12">B‘</text>
<text transform="matrix(1 0 0 1 90.1743 112.4146)" font-family="'Cambria'" font-size="12">E‘</text>
<line fill="none" stroke="#000000" stroke-miterlimit="10" x1="76.841" y1="47.666" x2="93.507" y2="55.999"/>
</svg>
