<?xml version="1.0" encoding="utf-8"?>
<!-- Generator: Adobe Illustrator 16.0.0, SVG Export Plug-In . SVG Version: 6.00 Build 0)  -->
<!DOCTYPE svg PUBLIC "-//W3C//DTD SVG 1.1//EN" "http://www.w3.org/Graphics/SVG/1.1/DTD/svg11.dtd">
<svg version="1.1" id="Ebene_1" xmlns="http://www.w3.org/2000/svg" xmlns:xlink="http://www.w3.org/1999/xlink" x="0px" y="0px"
	 width="509.161px" height="206.896px" viewBox="0 0 509.161 206.896" enable-background="new 0 0 509.161 206.896"
	 xml:space="preserve">
<g id="Ebene_1_1_">
	<circle fill="#FFFFFF" stroke="#010202" stroke-miterlimit="10" cx="14.673" cy="164.499" r="14.173"/>
	<line fill="none" stroke="#010202" stroke-miterlimit="10" x1="14.673" y1="150.326" x2="14.673" y2="125.751"/>
	<line fill="none" stroke="#010202" stroke-miterlimit="10" x1="210.994" y1="125.716" x2="210.994" y2="149.05"/>
	<line fill="none" stroke="#010202" stroke-miterlimit="10" x1="215.661" y1="125.716" x2="215.661" y2="149.05"/>
	<line fill="none" stroke="#010202" stroke-miterlimit="10" x1="14.673" y1="125.751" x2="74.25" y2="125.753"/>
	<circle fill="#FFFFFF" stroke="#010202" stroke-miterlimit="10" cx="41.173" cy="125.752" r="2.835"/>
	<line fill="none" stroke="#010202" stroke-miterlimit="10" x1="78.917" y1="125.753" x2="167.34" y2="125.753"/>
	<line fill="none" stroke="#010202" stroke-miterlimit="10" x1="167.34" y1="110.751" x2="167.34" y2="125.753"/>
	<line fill="none" stroke="#010202" stroke-miterlimit="10" x1="184.006" y1="117.751" x2="184.006" y2="198.833"/>
	<line fill="none" stroke="#010202" stroke-miterlimit="10" x1="184.006" y1="198.833" x2="14.673" y2="198.833"/>
	<line fill="none" stroke="#010202" stroke-miterlimit="10" x1="14.673" y1="178.5" x2="14.673" y2="198.833"/>
	<circle fill="#FFFFFF" stroke="#010202" stroke-miterlimit="10" cx="41.173" cy="198.833" r="2.835"/>
	<rect x="113.673" y="57.74" fill="#FFFFFF" stroke="#010202" stroke-miterlimit="10" width="11.339" height="28.346"/>
	<rect x="113.673" y="150.991" fill="#FFFFFF" stroke="#010202" stroke-miterlimit="10" width="11.339" height="28.346"/>
	<line fill="none" stroke="#010202" stroke-miterlimit="10" x1="119.343" y1="86.086" x2="119.343" y2="150.991"/>
	<line fill="none" stroke="#010202" stroke-miterlimit="10" x1="119.343" y1="178.5" x2="119.343" y2="198.833"/>
	<line fill="none" stroke="#010202" stroke-miterlimit="10" x1="119.343" y1="57.74" x2="119.343" y2="32.091"/>
	<line fill="none" stroke="#010202" stroke-miterlimit="10" x1="119.343" y1="32.091" x2="184.006" y2="32.091"/>
	<g>
		<g>
			<line fill="none" stroke="#010202" stroke-miterlimit="10" x1="184.006" y1="54.413" x2="184.006" y2="19.587"/>
			<g>
				<polygon fill="#010202" points="186.186,20.961 184.008,13.441 181.827,20.961 				"/>
			</g>
		</g>
	</g>
	<circle fill="#010202" stroke="#010202" stroke-miterlimit="10" cx="119.343" cy="125.752" r="1.771"/>
	<circle fill="#010202" stroke="#010202" stroke-miterlimit="10" cx="119.343" cy="198.833" r="1.771"/>
	<line fill="none" stroke="#010202" stroke-miterlimit="10" x1="184.006" y1="137.419" x2="210.994" y2="137.419"/>
	<text transform="matrix(1 0 0 1 127.0063 71.9133)" fill="#010202" font-family="'Cambria'" font-size="12">R</text>
	<text transform="matrix(1 0 0 1 134.4595 75.9094)" fill="#010202" font-family="'Cambria'" font-size="6.996">1</text>
	<text transform="matrix(1 0 0 1 127.0063 165.1643)" fill="#010202" font-family="'Cambria'" font-size="12">R</text>
	<text transform="matrix(1 0 0 1 134.4595 169.1604)" fill="#010202" font-family="'Cambria'" font-size="6.996">2</text>
	<text transform="matrix(1 0 0 1 10.5063 165.1633)" fill="#010202" font-family="'Cambria'" font-size="12">G</text>
	<text transform="matrix(1 0 0 1 10.5063 171.8274)" fill="#010202" font-family="'Cambria'" font-size="11.077">~</text>
	<text transform="matrix(1 0 0 1 178.3359 9.9993)" fill="#010202" font-family="'Cambria'" font-size="12">U</text>
	<text transform="matrix(1 0 0 1 186.1113 13.9954)" fill="#010202" font-family="'Cambria'" font-size="6.996">B</text>
	<circle fill="#010202" stroke="#010202" stroke-miterlimit="10" cx="184.006" cy="32.09" r="1.771"/>
	<line fill="none" stroke="#010202" stroke-miterlimit="10" x1="171.167" y1="115.339" x2="171.167" y2="120.165"/>
	<line fill="none" stroke="#010202" stroke-miterlimit="10" x1="171.167" y1="108.339" x2="171.167" y2="113.165"/>
	<line fill="none" stroke="#010202" stroke-miterlimit="10" x1="171.167" y1="122.419" x2="171.167" y2="127.245"/>
	<line fill="none" stroke="#010202" stroke-miterlimit="10" x1="171.167" y1="124.832" x2="184.006" y2="124.832"/>
	<g>
		<g>
			<line fill="none" stroke="#010202" stroke-miterlimit="10" x1="176.482" y1="117.751" x2="184.006" y2="117.751"/>
			<g>
				<polygon fill="#010202" points="177.672,119.495 171.167,117.752 177.672,116.008 				"/>
			</g>
		</g>
	</g>
	<line fill="none" stroke="#010202" stroke-miterlimit="10" x1="171.167" y1="110.751" x2="184.006" y2="110.751"/>
	<circle fill="#FFFFFF" stroke="#010202" stroke-miterlimit="10" cx="231" cy="137.419" r="2.835"/>
	<rect x="178.394" y="150.99" fill="#FFFFFF" stroke="#010202" stroke-miterlimit="10" width="11.339" height="28.346"/>
	<text transform="matrix(1 0 0 1 191.7271 165.1633)" fill="#010202" font-family="'Cambria'" font-size="12">R</text>
	<text transform="matrix(1 0 0 1 199.1802 169.1594)" fill="#010202" font-family="'Cambria'" font-size="6.996">S</text>
	<circle fill="#010202" stroke="#010202" stroke-miterlimit="10" cx="184.101" cy="137.383" r="1.771"/>
	<line fill="none" stroke="#010202" stroke-miterlimit="10" x1="215.661" y1="137.383" x2="227.667" y2="137.383"/>
	<line fill="none" stroke="#010202" stroke-miterlimit="10" x1="184.006" y1="54.413" x2="184.006" y2="110.751"/>
	<line fill="none" stroke="#010202" stroke-miterlimit="10" x1="74.25" y1="114.049" x2="74.25" y2="137.383"/>
	<line fill="none" stroke="#010202" stroke-miterlimit="10" x1="78.917" y1="114.049" x2="78.917" y2="137.383"/>
</g>
<g id="Ebene_2_1_">
	<line fill="none" stroke="#010202" stroke-miterlimit="10" x1="301.094" y1="140.913" x2="301.094" y2="108.338"/>
	<line fill="none" stroke="#010202" stroke-miterlimit="10" x1="301.094" y1="108.338" x2="395.28" y2="108.339"/>
	<line fill="none" stroke="#010202" stroke-miterlimit="10" x1="301.094" y1="169.258" x2="301.094" y2="200.418"/>
	<rect x="295.424" y="140.913" fill="#FFFFFF" stroke="#010202" stroke-miterlimit="10" width="11.338" height="28.346"/>
	<rect x="334.913" y="140.913" fill="#FFFFFF" stroke="#010202" stroke-miterlimit="10" width="11.338" height="28.346"/>
	<rect x="469.946" y="117.752" fill="#FFFFFF" stroke="#010202" stroke-miterlimit="10" width="11.34" height="28.346"/>
	<line fill="none" stroke="#010202" stroke-miterlimit="10" x1="340.581" y1="108.339" x2="340.581" y2="140.91"/>
	<line fill="none" stroke="#010202" stroke-miterlimit="10" x1="340.581" y1="169.258" x2="340.581" y2="200.418"/>
	<line fill="none" stroke="#010202" stroke-miterlimit="10" x1="440.575" y1="120.731" x2="440.575" y2="108.339"/>
	<circle fill="#010202" stroke="#010202" stroke-miterlimit="10" cx="340.581" cy="108.338" r="1.771"/>
	<circle fill="#010202" stroke="#010202" stroke-miterlimit="10" cx="340.581" cy="200.418" r="1.771"/>
	<line fill="none" stroke="#010202" stroke-miterlimit="10" x1="508.661" y1="200.418" x2="301.094" y2="200.418"/>
	<circle fill="#010202" stroke="#010202" stroke-miterlimit="10" cx="454.749" cy="200.418" r="1.771"/>
	<text transform="matrix(1 0 0 1 308.7593 155.0852)" fill="#010202" font-family="'Cambria'" font-size="12">R</text>
	<text transform="matrix(1 0 0 1 316.2124 159.0813)" fill="#010202" font-family="'Cambria'" font-size="6.996">1</text>
	<text transform="matrix(1 0 0 1 348.2437 155.0852)" fill="#010202" font-family="'Cambria'" font-size="12">R</text>
	<text transform="matrix(1 0 0 1 355.6968 159.0813)" fill="#010202" font-family="'Cambria'" font-size="6.996">2</text>
	
		<rect x="430.551" y="124.885" transform="matrix(-0.7071 -0.7071 0.7071 -0.7071 656.7131 541.8325)" fill="none" stroke="#010202" stroke-miterlimit="10" width="20.045" height="20.042"/>
	<line fill="none" stroke="#010202" stroke-miterlimit="10" x1="426.403" y1="134.913" x2="454.749" y2="134.913"/>
	<line fill="none" stroke="#010202" stroke-miterlimit="10" x1="440.575" y1="149.084" x2="440.575" y2="154.163"/>
	<line fill="none" stroke="#010202" stroke-miterlimit="10" x1="488.909" y1="154.163" x2="391.745" y2="154.163"/>
	<line fill="none" stroke="#010202" stroke-miterlimit="10" x1="454.749" y1="154.163" x2="454.749" y2="198.835"/>
	<line fill="none" stroke="#010202" stroke-miterlimit="10" x1="440.575" y1="108.339" x2="508.661" y2="108.339"/>
	<line fill="none" stroke="#010202" stroke-miterlimit="10" x1="475.616" y1="117.752" x2="475.616" y2="108.339"/>
	<line fill="none" stroke="#010202" stroke-miterlimit="10" x1="508.661" y1="108.339" x2="508.661" y2="200.418"/>
	<g>
		<g>
			<line fill="none" stroke="#010202" stroke-miterlimit="10" x1="424.11" y1="109.764" x2="424.11" y2="143.411"/>
			<g>
				<polygon fill="#010202" points="421.928,141.925 424.108,150.055 426.288,141.925 				"/>
			</g>
		</g>
	</g>
	<text transform="matrix(1 0 0 1 415.4487 99.7522)" font-family="'Cambria'" font-size="12">i</text>
	<text transform="matrix(1 0 0 1 418.7827 103.7478)" font-family="'Cambria'" font-size="6.996">D</text>
	<text transform="matrix(1 0 0 1 423.4116 99.7522)" font-family="'Cambria'" font-size="12">=u</text>
	<text transform="matrix(1 0 0 1 436.6821 103.7478)" font-family="'Cambria'" font-size="6.996">GS</text>
	<text transform="matrix(1 0 0 1 444.4272 99.7522)" font-family="'Cambria'" font-size="12">·g</text>
	<text transform="matrix(1 0 0 1 453.7427 103.7478)" font-family="'Cambria'" font-size="6.996">fs</text>
	<line fill="none" stroke="#010202" stroke-miterlimit="10" x1="395.28" y1="120.323" x2="395.28" y2="108.748"/>
	<line fill="none" stroke="#010202" stroke-miterlimit="10" x1="395.28" y1="148.255" x2="395.28" y2="154.163"/>
	<rect x="449.321" y="163.164" fill="#FFFFFF" stroke="#010202" stroke-miterlimit="10" width="11.34" height="28.346"/>
	<text transform="matrix(1 0 0 1 462.4917 177.3372)" fill="#010202" font-family="'Cambria'" font-size="12">R</text>
	<text transform="matrix(1 0 0 1 469.9448 181.3323)" fill="#010202" font-family="'Cambria'" font-size="6.996">S</text>
	<line fill="none" stroke="#000000" stroke-miterlimit="10" x1="385.459" y1="124.625" x2="405.1" y2="144.266"/>
	<line fill="none" stroke="#000000" stroke-miterlimit="10" x1="405.1" y1="124.625" x2="385.459" y2="144.266"/>
	<text transform="matrix(1 0 0 1 383.6606 119.8313)" font-family="'Cambria'" font-size="15.158">+</text>
	<text transform="matrix(1 0 0 1 385.4595 154.6487)" font-family="'Cambria'" font-size="15.158">-</text>
	<circle fill="#010202" stroke="#010202" stroke-miterlimit="10" cx="475.704" cy="108.345" r="1.771"/>
	<text transform="matrix(1 0 0 1 483.1147 130.425)" fill="#010202" font-family="'Cambria'" font-size="12">r</text>
	<text transform="matrix(1 0 0 1 488.0776 134.4211)" fill="#010202" font-family="'Cambria'" font-size="6.996">DS</text>
	<line fill="none" stroke="#010202" stroke-miterlimit="10" x1="475.616" y1="146.098" x2="475.616" y2="154.163"/>
	<circle fill="none" stroke="#010202" stroke-miterlimit="10" cx="491.743" cy="154.163" r="2.835"/>
</g>
</svg>
