<?xml version="1.0" encoding="utf-8"?>
<!-- Generator: Adobe Illustrator 16.0.0, SVG Export Plug-In . SVG Version: 6.00 Build 0)  -->
<!DOCTYPE svg PUBLIC "-//W3C//DTD SVG 1.1//EN" "http://www.w3.org/Graphics/SVG/1.1/DTD/svg11.dtd">
<svg version="1.1" xmlns="http://www.w3.org/2000/svg" xmlns:xlink="http://www.w3.org/1999/xlink" x="0px" y="0px"
	 width="607.067px" height="204.063px" viewBox="0 0 607.067 204.063" enable-background="new 0 0 607.067 204.063"
	 xml:space="preserve">
<g id="Ebene_1">
	<circle fill="#FFFFFF" stroke="#000000" stroke-miterlimit="10" cx="14.673" cy="153.499" r="14.173"/>
	<line fill="none" stroke="#000000" stroke-miterlimit="10" x1="14.673" y1="139.326" x2="14.673" y2="117.752"/>
	<line fill="none" stroke="#000000" stroke-miterlimit="10" x1="84.006" y1="106.085" x2="84.006" y2="129.419"/>
	<line fill="none" stroke="#000000" stroke-miterlimit="10" x1="88.673" y1="106.085" x2="88.673" y2="129.419"/>
	<line fill="none" stroke="#000000" stroke-miterlimit="10" x1="14.673" y1="117.752" x2="84.006" y2="117.753"/>
	<circle fill="#FFFFFF" stroke="#000000" stroke-miterlimit="10" cx="58.673" cy="117.752" r="3.333"/>
	<line fill="none" stroke="#000000" stroke-miterlimit="10" x1="88.673" y1="117.753" x2="167.34" y2="117.753"/>
	<line fill="none" stroke="#000000" stroke-miterlimit="10" x1="167.34" y1="106.085" x2="167.34" y2="129.419"/>
	<line fill="none" stroke="#000000" stroke-miterlimit="10" x1="167.34" y1="114.419" x2="184.006" y2="106.085"/>
	<g>
		<g>
			<line fill="none" stroke="#000000" stroke-miterlimit="10" x1="167.34" y1="121.086" x2="177.271" y2="126.051"/>
			<g>
				<polygon points="174.66,127.507 184.005,129.42 176.869,123.089 				"/>
			</g>
		</g>
	</g>
	<line fill="none" stroke="#000000" stroke-miterlimit="10" x1="184.006" y1="129.419" x2="184.006" y2="198.833"/>
	<line fill="none" stroke="#000000" stroke-miterlimit="10" x1="184.006" y1="198.833" x2="14.673" y2="198.833"/>
	<line fill="none" stroke="#000000" stroke-miterlimit="10" x1="14.673" y1="167.672" x2="14.673" y2="198.833"/>
	<circle fill="#FFFFFF" stroke="#000000" stroke-miterlimit="10" cx="58.673" cy="198.832" r="3.333"/>
	<rect x="113.673" y="57.74" fill="#FFFFFF" stroke="#000000" stroke-miterlimit="10" width="11.339" height="28.346"/>
	<rect x="113.673" y="139.326" fill="#FFFFFF" stroke="#000000" stroke-miterlimit="10" width="11.339" height="28.346"/>
	<line fill="none" stroke="#000000" stroke-miterlimit="10" x1="119.343" y1="86.086" x2="119.343" y2="139.326"/>
	<line fill="none" stroke="#000000" stroke-miterlimit="10" x1="119.343" y1="167.672" x2="119.343" y2="198.833"/>
	<line fill="none" stroke="#000000" stroke-miterlimit="10" x1="119.343" y1="57.74" x2="119.343" y2="32.091"/>
	<line fill="none" stroke="#000000" stroke-miterlimit="10" x1="119.343" y1="32.091" x2="184.006" y2="32.091"/>
	<g>
		<g>
			<line fill="none" stroke="#000000" stroke-miterlimit="10" x1="184.006" y1="106.085" x2="184.006" y2="20.086"/>
			<g>
				<polygon points="186.186,21.572 184.008,13.441 181.827,21.572 				"/>
			</g>
		</g>
	</g>
	<circle stroke="#000000" stroke-miterlimit="10" cx="119.343" cy="117.752" r="2.835"/>
	<circle stroke="#000000" stroke-miterlimit="10" cx="119.343" cy="198.832" r="2.835"/>
	<line fill="none" stroke="#000000" stroke-miterlimit="10" x1="208.673" y1="94.418" x2="208.673" y2="117.752"/>
	<line fill="none" stroke="#000000" stroke-miterlimit="10" x1="213.34" y1="94.418" x2="213.34" y2="117.752"/>
	<rect x="178.336" y="140.326" fill="#FFFFFF" stroke="#000000" stroke-miterlimit="10" width="11.338" height="28.346"/>
	<line fill="none" stroke="#000000" stroke-miterlimit="10" x1="184.006" y1="106.085" x2="208.673" y2="106.085"/>
	<line fill="none" stroke="#000000" stroke-miterlimit="10" x1="213.34" y1="106.085" x2="248.344" y2="106.085"/>
	<line fill="none" stroke="#000000" stroke-miterlimit="10" x1="248.343" y1="198.832" x2="184.006" y2="198.832"/>
	<circle stroke="#000000" stroke-miterlimit="10" cx="184.006" cy="198.833" r="2.835"/>
	<text transform="matrix(1 0 0 1 192.668 154.499)" font-family="'Cambria'" font-size="12">R</text>
	<text transform="matrix(0.583 0 0 0.583 200.1211 158.4951)" font-family="'Cambria'" font-size="12">E</text>
	<text transform="matrix(1 0 0 1 127.0063 71.9131)" font-family="'Cambria'" font-size="12">R</text>
	<text transform="matrix(0.583 0 0 0.583 134.4595 75.9092)" font-family="'Cambria'" font-size="12">1</text>
	<text transform="matrix(1 0 0 1 127.0063 153.499)" font-family="'Cambria'" font-size="12">R</text>
	<text transform="matrix(0.583 0 0 0.583 134.4595 157.4951)" font-family="'Cambria'" font-size="12">2</text>
	<text transform="matrix(1 0 0 1 10.5063 154.499)" font-family="'Cambria'" font-size="12">G</text>
	<text transform="matrix(0.583 0 0 0.583 10.5063 161.1631)" font-family="'Cambria'" font-size="19">~</text>
	<text transform="matrix(1 0 0 1 178.3359 9.999)" font-family="'Cambria'" font-size="12">U</text>
	<text transform="matrix(0.583 0 0 0.583 186.1113 13.9951)" font-family="'Cambria'" font-size="12">B</text>
	<circle stroke="#000000" stroke-miterlimit="10" cx="184.006" cy="32.09" r="2.835"/>
	<circle fill="#FFFFFF" stroke="#000000" stroke-miterlimit="10" cx="248.343" cy="198.832" r="3.333"/>
	<circle fill="#FFFFFF" stroke="#000000" stroke-miterlimit="10" cx="248.343" cy="106.085" r="3.333"/>
	<rect x="18.833" y="112.083" fill="#FFFFFF" stroke="#000000" stroke-miterlimit="10" width="28.346" height="11.339"/>
	<text transform="matrix(1 0 0 1 28.8467 106.085)" font-family="'Cambria'" font-size="12">R</text>
	<text transform="matrix(0.583 0 0 0.583 36.2998 110.0811)" font-family="'Cambria'" font-size="12">q</text>
	<rect x="226.668" y="140.663" fill="#FFFFFF" stroke="#000000" stroke-miterlimit="10" width="11.338" height="28.346"/>
	<text transform="matrix(1 0 0 1 241 154.8359)" font-family="'Cambria'" font-size="12">R</text>
	<text transform="matrix(0.583 0 0 0.583 248.4531 158.832)" font-family="'Cambria'" font-size="12">L</text>
	<line fill="none" stroke="#000000" stroke-miterlimit="10" x1="232.337" y1="140.663" x2="232.337" y2="106.085"/>
	<line fill="none" stroke="#000000" stroke-miterlimit="10" x1="232.337" y1="169.009" x2="232.337" y2="198.832"/>
	<circle stroke="#000000" stroke-miterlimit="10" cx="232.337" cy="198.832" r="2.835"/>
	<circle stroke="#000000" stroke-miterlimit="10" cx="232.337" cy="106.085" r="2.835"/>
</g>
<g id="Ebene_2">
	<line fill="none" stroke="#000000" stroke-miterlimit="10" x1="370.416" y1="139.329" x2="370.416" y2="101.216"/>
	<line fill="none" stroke="#000000" stroke-miterlimit="10" x1="331.75" y1="101.755" x2="428.061" y2="101.756"/>
	<line fill="none" stroke="#000000" stroke-miterlimit="10" x1="370.416" y1="167.675" x2="370.416" y2="198.835"/>
	<rect x="364.747" y="139.329" fill="#FFFFFF" stroke="#000000" stroke-miterlimit="10" width="11.338" height="28.346"/>
	<rect x="404.232" y="139.329" fill="#FFFFFF" stroke="#000000" stroke-miterlimit="10" width="11.338" height="28.346"/>
	<rect x="543.396" y="139.326" fill="#FFFFFF" stroke="#000000" stroke-miterlimit="10" width="11.34" height="28.346"/>
	<line fill="none" stroke="#000000" stroke-miterlimit="10" x1="409.901" y1="101.217" x2="409.901" y2="139.329"/>
	<line fill="none" stroke="#000000" stroke-miterlimit="10" x1="409.901" y1="167.675" x2="409.901" y2="198.835"/>
	<line fill="none" stroke="#000000" stroke-miterlimit="10" x1="509.897" y1="109.11" x2="509.897" y2="101.711"/>
	<circle stroke="#000000" stroke-miterlimit="10" cx="409.901" cy="101.755" r="2.835"/>
	<circle stroke="#000000" stroke-miterlimit="10" cx="409.901" cy="198.835" r="2.835"/>
	<line fill="none" stroke="#000000" stroke-miterlimit="10" x1="603.234" y1="198.835" x2="331.75" y2="198.835"/>
	<circle stroke="#000000" stroke-miterlimit="10" cx="490.336" cy="198.832" r="2.835"/>
	<text transform="matrix(1 0 0 1 378.0801 153.5015)" font-family="'Cambria'" font-size="12">R</text>
	<text transform="matrix(0.583 0 0 0.583 385.5332 157.4976)" font-family="'Cambria'" font-size="12">1</text>
	<text transform="matrix(1 0 0 1 417.5645 153.502)" font-family="'Cambria'" font-size="12">R</text>
	<text transform="matrix(0.583 0 0 0.583 425.0176 157.498)" font-family="'Cambria'" font-size="12">2</text>
	<text transform="matrix(1 0 0 1 556.5664 153.4985)" font-family="'Cambria'" font-size="12">R</text>
	<text transform="matrix(0.583 0 0 0.583 564.0195 157.4946)" font-family="'Cambria'" font-size="12">C</text>
	<rect x="428.061" y="96.083" fill="#FFFFFF" stroke="#000000" stroke-miterlimit="10" width="28.346" height="11.338"/>
	<text transform="matrix(1 0 0 1 435.8984 88.502)" font-family="'Cambria'" font-size="12">r</text>
	<text transform="matrix(0.583 0 0 0.583 440.8613 92.498)" font-family="'Cambria'" font-size="12">BE</text>
	
		<rect x="499.876" y="113.306" transform="matrix(0.7071 0.7071 -0.7071 0.7071 236.5518 -324.4299)" fill="none" stroke="#000000" stroke-miterlimit="10" width="20.043" height="20.044"/>
	<line fill="none" stroke="#000000" stroke-miterlimit="10" x1="495.725" y1="123.329" x2="524.071" y2="123.329"/>
	<line fill="none" stroke="#000000" stroke-miterlimit="10" x1="509.897" y1="137.501" x2="509.897" y2="146.586"/>
	<line fill="none" stroke="#000000" stroke-miterlimit="10" x1="524.071" y1="146.586" x2="466.419" y2="146.586"/>
	<line fill="none" stroke="#000000" stroke-miterlimit="10" x1="456.406" y1="101.752" x2="474.752" y2="101.756"/>
	<line fill="none" stroke="#000000" stroke-miterlimit="10" x1="474.752" y1="101.756" x2="474.752" y2="146.586"/>
	<rect x="484.667" y="156.333" fill="#FFFFFF" stroke="#000000" stroke-miterlimit="10" width="11.34" height="28.346"/>
	<text transform="matrix(1 0 0 1 497.8379 170.5063)" font-family="'Cambria'" font-size="12">R</text>
	<text transform="matrix(0.583 0 0 0.583 505.291 174.5024)" font-family="'Cambria'" font-size="12">E</text>
	<line fill="none" stroke="#000000" stroke-miterlimit="10" x1="490.338" y1="146.586" x2="490.337" y2="156.333"/>
	<line fill="none" stroke="#000000" stroke-miterlimit="10" x1="509.897" y1="101.756" x2="603.234" y2="101.756"/>
	<line fill="none" stroke="#000000" stroke-miterlimit="10" x1="549.065" y1="139.326" x2="549.065" y2="101.711"/>
	<line fill="none" stroke="#000000" stroke-miterlimit="10" x1="549.065" y1="167.675" x2="549.065" y2="198.835"/>
	<text transform="matrix(1 0 0 1 480.6582 94.667)" font-family="'Cambria'" font-size="12">i</text>
	<text transform="matrix(0.583 0 0 0.583 483.9922 98.6631)" font-family="'Cambria'" font-size="12">c</text>
	<text transform="matrix(1 0 0 1 487.0771 94.667)" font-family="'Cambria'" font-size="12">=i</text>
	<text transform="matrix(0.583 0 0 0.583 497.0557 98.6631)" font-family="'Cambria'" font-size="12">b</text>
	<text transform="matrix(1 0 0 1 500.8848 94.667)" font-family="'Cambria'" font-size="12">·β</text>
	<g>
		<g>
			<line fill="none" stroke="#000000" stroke-miterlimit="10" x1="491.252" y1="101.752" x2="491.252" y2="135.399"/>
			<g>
				<polygon points="489.073,133.913 491.25,142.043 493.431,133.913 				"/>
			</g>
		</g>
	</g>
	<line fill="none" stroke="#000000" stroke-miterlimit="10" x1="490.337" y1="184.68" x2="490.336" y2="198.833"/>
	<circle fill="#FFFFFF" stroke="#000000" stroke-miterlimit="10" cx="603.233" cy="101.756" r="3.333"/>
	<circle fill="#FFFFFF" stroke="#000000" stroke-miterlimit="10" cx="603.233" cy="198.835" r="3.333"/>
	<line fill="none" stroke="#000000" stroke-miterlimit="10" x1="331.75" y1="139.575" x2="331.75" y2="101.463"/>
	<line fill="none" stroke="#000000" stroke-miterlimit="10" x1="331.75" y1="167.922" x2="331.75" y2="199.082"/>
	<rect x="326.081" y="139.575" fill="#FFFFFF" stroke="#000000" stroke-miterlimit="10" width="11.338" height="28.346"/>
	<text transform="matrix(1 0 0 1 339.4141 154.748)" font-family="'Cambria'" font-size="12">R</text>
	<text transform="matrix(0.583 0 0 0.583 346.8672 158.7441)" font-family="'Cambria'" font-size="12">q</text>
	<circle stroke="#000000" stroke-miterlimit="10" cx="370.416" cy="101.216" r="2.835"/>
	<circle stroke="#000000" stroke-miterlimit="10" cx="370.416" cy="198.835" r="2.835"/>
	<rect x="578.415" y="139.764" fill="#FFFFFF" stroke="#000000" stroke-miterlimit="10" width="11.34" height="28.346"/>
	<text transform="matrix(1 0 0 1 591.5859 153.9365)" font-family="'Cambria'" font-size="12">R</text>
	<text transform="matrix(0.583 0 0 0.583 599.0391 157.9326)" font-family="'Cambria'" font-size="12">L</text>
	<line fill="none" stroke="#000000" stroke-miterlimit="10" x1="584.085" y1="139.764" x2="584.085" y2="102.149"/>
	<line fill="none" stroke="#000000" stroke-miterlimit="10" x1="584.085" y1="168.113" x2="584.085" y2="199.273"/>
	<circle stroke="#000000" stroke-miterlimit="10" cx="549.066" cy="198.834" r="2.835"/>
	<circle stroke="#000000" stroke-miterlimit="10" cx="584.086" cy="199.273" r="2.835"/>
	<circle stroke="#000000" stroke-miterlimit="10" cx="549.066" cy="101.71" r="2.835"/>
	<circle stroke="#000000" stroke-miterlimit="10" cx="584.086" cy="102.149" r="2.835"/>
</g>
</svg>
