<?xml version="1.0" encoding="utf-8"?>
<!-- Generator: Adobe Illustrator 16.0.0, SVG Export Plug-In . SVG Version: 6.00 Build 0)  -->
<!DOCTYPE svg PUBLIC "-//W3C//DTD SVG 1.1//EN" "http://www.w3.org/Graphics/SVG/1.1/DTD/svg11.dtd">
<svg version="1.1" id="Ebene_1" xmlns="http://www.w3.org/2000/svg" xmlns:xlink="http://www.w3.org/1999/xlink" x="0px" y="0px"
	 width="607.067px" height="204.063px" viewBox="0 0 607.067 204.063" enable-background="new 0 0 607.067 204.063"
	 xml:space="preserve">
<g id="Ebene_1_1_">
	<circle fill="#FFFFFF" stroke="#000000" stroke-miterlimit="10" cx="14.673" cy="153.499" r="14.173"/>
	<line fill="none" stroke="#000000" stroke-miterlimit="10" x1="14.673" y1="139.326" x2="14.673" y2="117.752"/>
	<line fill="none" stroke="#000000" stroke-miterlimit="10" x1="84.006" y1="106.085" x2="84.006" y2="129.419"/>
	<line fill="none" stroke="#000000" stroke-miterlimit="10" x1="88.673" y1="106.085" x2="88.673" y2="129.419"/>
	<line fill="none" stroke="#000000" stroke-miterlimit="10" x1="14.673" y1="117.752" x2="84.006" y2="117.753"/>
	<circle fill="#FFFFFF" stroke="#000000" stroke-miterlimit="10" cx="58.673" cy="117.752" r="2.835"/>
	<line fill="none" stroke="#000000" stroke-miterlimit="10" x1="88.673" y1="117.753" x2="167.34" y2="117.753"/>
	<line fill="none" stroke="#000000" stroke-miterlimit="10" x1="167.34" y1="106.085" x2="167.34" y2="129.419"/>
	<line fill="none" stroke="#000000" stroke-miterlimit="10" x1="167.34" y1="114.419" x2="184.006" y2="106.085"/>
	<g>
		<g>
			<line fill="none" stroke="#000000" stroke-miterlimit="10" x1="167.34" y1="121.086" x2="177.271" y2="126.051"/>
			<g>
				<polygon points="174.66,127.507 184.005,129.42 176.869,123.089 				"/>
			</g>
		</g>
	</g>
	<line fill="none" stroke="#000000" stroke-miterlimit="10" x1="184.006" y1="129.419" x2="184.006" y2="198.833"/>
	<line fill="none" stroke="#000000" stroke-miterlimit="10" x1="184.006" y1="198.833" x2="14.673" y2="198.833"/>
	<line fill="none" stroke="#000000" stroke-miterlimit="10" x1="14.673" y1="167.672" x2="14.673" y2="198.833"/>
	<circle fill="#FFFFFF" stroke="#000000" stroke-miterlimit="10" cx="58.673" cy="198.832" r="2.835"/>
	<rect x="113.673" y="57.74" fill="#FFFFFF" stroke="#000000" stroke-miterlimit="10" width="11.339" height="28.346"/>
	<rect x="113.673" y="139.326" fill="#FFFFFF" stroke="#000000" stroke-miterlimit="10" width="11.339" height="28.346"/>
	<line fill="none" stroke="#000000" stroke-miterlimit="10" x1="119.343" y1="86.086" x2="119.343" y2="139.326"/>
	<line fill="none" stroke="#000000" stroke-miterlimit="10" x1="119.343" y1="167.672" x2="119.343" y2="198.833"/>
	<line fill="none" stroke="#000000" stroke-miterlimit="10" x1="119.343" y1="57.74" x2="119.343" y2="32.091"/>
	<line fill="none" stroke="#000000" stroke-miterlimit="10" x1="119.343" y1="32.091" x2="184.006" y2="32.091"/>
	<g>
		<g>
			<line fill="none" stroke="#000000" stroke-miterlimit="10" x1="184.006" y1="106.085" x2="184.006" y2="20.086"/>
			<g>
				<polygon points="186.186,21.573 184.008,13.441 181.827,21.573 				"/>
			</g>
		</g>
	</g>
	<circle stroke="#000000" stroke-miterlimit="10" cx="119.343" cy="117.752" r="1.771"/>
	<circle stroke="#000000" stroke-miterlimit="10" cx="119.343" cy="198.832" r="1.771"/>
	<line fill="none" stroke="#000000" stroke-miterlimit="10" x1="208.673" y1="94.418" x2="208.673" y2="117.752"/>
	<line fill="none" stroke="#000000" stroke-miterlimit="10" x1="213.34" y1="94.418" x2="213.34" y2="117.752"/>
	<rect x="178.336" y="140.326" fill="#FFFFFF" stroke="#000000" stroke-miterlimit="10" width="11.338" height="28.346"/>
	<line fill="none" stroke="#000000" stroke-miterlimit="10" x1="184.006" y1="106.085" x2="208.673" y2="106.085"/>
	<line fill="none" stroke="#000000" stroke-miterlimit="10" x1="213.34" y1="106.085" x2="248.344" y2="106.085"/>
	<line fill="none" stroke="#000000" stroke-miterlimit="10" x1="248.343" y1="198.832" x2="184.006" y2="198.832"/>
	<circle stroke="#000000" stroke-miterlimit="10" cx="184.006" cy="198.833" r="1.771"/>
	<text transform="matrix(1 0 0 1 192.668 154.4993)" font-family="'Cambria'" font-size="12">R</text>
	<text transform="matrix(1 0 0 1 200.1216 158.4954)" font-family="'Cambria'" font-size="6.996">E</text>
	<text transform="matrix(1 0 0 1 127.0063 71.9133)" font-family="'Cambria'" font-size="12">R</text>
	<text transform="matrix(1 0 0 1 134.4595 75.9094)" font-family="'Cambria'" font-size="6.996">1</text>
	<text transform="matrix(1 0 0 1 127.0063 153.4993)" font-family="'Cambria'" font-size="12">R</text>
	<text transform="matrix(1 0 0 1 134.4595 157.4954)" font-family="'Cambria'" font-size="6.996">2</text>
	<text transform="matrix(1 0 0 1 10.5063 154.4993)" font-family="'Cambria'" font-size="12">G</text>
	<text transform="matrix(1 0 0 1 10.5063 161.1633)" font-family="'Cambria'" font-size="11.077">~</text>
	<text transform="matrix(1 0 0 1 178.3359 9.9993)" font-family="'Cambria'" font-size="12">U</text>
	<text transform="matrix(1 0 0 1 186.1113 13.9954)" font-family="'Cambria'" font-size="6.996">B</text>
	<circle stroke="#000000" stroke-miterlimit="10" cx="184.006" cy="32.09" r="1.771"/>
	<circle fill="#FFFFFF" stroke="#000000" stroke-miterlimit="10" cx="248.343" cy="198.832" r="2.835"/>
	<circle fill="#FFFFFF" stroke="#000000" stroke-miterlimit="10" cx="248.343" cy="106.085" r="2.835"/>
	<rect x="18.833" y="112.083" fill="#FFFFFF" stroke="#000000" stroke-miterlimit="10" width="28.346" height="11.339"/>
	<text transform="matrix(1 0 0 1 28.8467 106.0852)" font-family="'Cambria'" font-size="12">R</text>
	<text transform="matrix(1 0 0 1 36.3003 110.0813)" font-family="'Cambria'" font-size="6.996">q</text>
	<rect x="226.668" y="140.663" fill="#FFFFFF" stroke="#000000" stroke-miterlimit="10" width="11.338" height="28.346"/>
	<text transform="matrix(1 0 0 1 241 154.8362)" font-family="'Cambria'" font-size="12">R</text>
	<text transform="matrix(1 0 0 1 248.4536 158.8323)" font-family="'Cambria'" font-size="6.996">L</text>
	<line fill="none" stroke="#000000" stroke-miterlimit="10" x1="232.337" y1="140.663" x2="232.337" y2="106.085"/>
	<line fill="none" stroke="#000000" stroke-miterlimit="10" x1="232.337" y1="169.009" x2="232.337" y2="198.832"/>
	<circle stroke="#000000" stroke-miterlimit="10" cx="232.337" cy="198.832" r="1.771"/>
	<circle stroke="#000000" stroke-miterlimit="10" cx="232.337" cy="106.085" r="1.771"/>
</g>
<g id="Ebene_2">
	<line fill="none" stroke="#000000" stroke-miterlimit="10" x1="370.417" y1="139.329" x2="370.417" y2="101.216"/>
	<line fill="none" stroke="#000000" stroke-miterlimit="10" x1="331.75" y1="101.755" x2="428.061" y2="101.756"/>
	<line fill="none" stroke="#000000" stroke-miterlimit="10" x1="370.417" y1="167.675" x2="370.417" y2="198.835"/>
	<rect x="364.747" y="139.329" fill="#FFFFFF" stroke="#000000" stroke-miterlimit="10" width="11.338" height="28.346"/>
	<rect x="404.233" y="139.329" fill="#FFFFFF" stroke="#000000" stroke-miterlimit="10" width="11.338" height="28.346"/>
	<rect x="543.395" y="139.326" fill="#FFFFFF" stroke="#000000" stroke-miterlimit="10" width="11.342" height="28.346"/>
	<line fill="none" stroke="#000000" stroke-miterlimit="10" x1="409.901" y1="101.217" x2="409.901" y2="139.329"/>
	<line fill="none" stroke="#000000" stroke-miterlimit="10" x1="409.901" y1="167.675" x2="409.901" y2="198.835"/>
	<line fill="none" stroke="#000000" stroke-miterlimit="10" x1="509.897" y1="109.11" x2="509.897" y2="101.711"/>
	<circle stroke="#000000" stroke-miterlimit="10" cx="409.901" cy="101.755" r="1.771"/>
	<circle stroke="#000000" stroke-miterlimit="10" cx="409.901" cy="198.835" r="1.771"/>
	<line fill="none" stroke="#000000" stroke-miterlimit="10" x1="603.235" y1="198.835" x2="331.75" y2="198.835"/>
	<circle stroke="#000000" stroke-miterlimit="10" cx="490.336" cy="198.832" r="1.771"/>
	<text transform="matrix(1 0 0 1 378.0806 153.5012)" font-family="'Cambria'" font-size="12">R</text>
	<text transform="matrix(1 0 0 1 385.5337 157.4983)" font-family="'Cambria'" font-size="6.996">1</text>
	<text transform="matrix(1 0 0 1 417.5649 153.5022)" font-family="'Cambria'" font-size="12">R</text>
	<text transform="matrix(1 0 0 1 425.0181 157.4983)" font-family="'Cambria'" font-size="6.996">2</text>
	<text transform="matrix(1 0 0 1 556.5669 153.4993)" font-family="'Cambria'" font-size="12">R</text>
	<text transform="matrix(1 0 0 1 564.02 157.4944)" font-family="'Cambria'" font-size="6.996">C</text>
	<rect x="428.061" y="96.083" fill="#FFFFFF" stroke="#000000" stroke-miterlimit="10" width="28.346" height="11.338"/>
	<text transform="matrix(1 0 0 1 435.8989 88.5022)" font-family="'Cambria'" font-size="12">r</text>
	<text transform="matrix(1 0 0 1 440.8608 92.4983)" font-family="'Cambria'" font-size="6.996">BE</text>
	
		<rect x="499.874" y="113.302" transform="matrix(-0.7071 -0.7071 0.7071 -0.7071 783.2269 571.0861)" fill="none" stroke="#000000" stroke-miterlimit="10" width="20.043" height="20.043"/>
	<line fill="none" stroke="#000000" stroke-miterlimit="10" x1="495.725" y1="123.329" x2="524.071" y2="123.329"/>
	<line fill="none" stroke="#000000" stroke-miterlimit="10" x1="509.897" y1="137.501" x2="509.897" y2="146.586"/>
	<line fill="none" stroke="#000000" stroke-miterlimit="10" x1="524.071" y1="146.586" x2="466.418" y2="146.586"/>
	<line fill="none" stroke="#000000" stroke-miterlimit="10" x1="456.407" y1="101.752" x2="474.752" y2="101.756"/>
	<line fill="none" stroke="#000000" stroke-miterlimit="10" x1="474.752" y1="101.756" x2="474.752" y2="146.586"/>
	<rect x="484.667" y="156.333" fill="#FFFFFF" stroke="#000000" stroke-miterlimit="10" width="11.34" height="28.346"/>
	<text transform="matrix(1 0 0 1 497.8384 170.5061)" font-family="'Cambria'" font-size="12">R</text>
	<text transform="matrix(1 0 0 1 505.2915 174.5022)" font-family="'Cambria'" font-size="6.996">E</text>
	<line fill="none" stroke="#000000" stroke-miterlimit="10" x1="490.338" y1="146.586" x2="490.336" y2="156.333"/>
	<line fill="none" stroke="#000000" stroke-miterlimit="10" x1="509.897" y1="101.756" x2="603.235" y2="101.756"/>
	<line fill="none" stroke="#000000" stroke-miterlimit="10" x1="549.065" y1="139.326" x2="549.065" y2="101.711"/>
	<line fill="none" stroke="#000000" stroke-miterlimit="10" x1="549.065" y1="167.675" x2="549.065" y2="198.835"/>
	<text transform="matrix(1 0 0 1 480.6587 94.6672)" font-family="'Cambria'" font-size="12">i</text>
	<text transform="matrix(1 0 0 1 483.9917 98.6633)" font-family="'Cambria'" font-size="6.996">c</text>
	<text transform="matrix(1 0 0 1 487.0767 94.6672)" font-family="'Cambria'" font-size="12">=i</text>
	<text transform="matrix(1 0 0 1 497.0552 98.6633)" font-family="'Cambria'" font-size="6.996">b</text>
	<text transform="matrix(1 0 0 1 500.8853 94.6672)" font-family="'Cambria'" font-size="12">·β</text>
	<g>
		<g>
			<line fill="none" stroke="#000000" stroke-miterlimit="10" x1="491.252" y1="101.752" x2="491.252" y2="135.399"/>
			<g>
				<polygon points="489.073,133.913 491.25,142.043 493.43,133.913 				"/>
			</g>
		</g>
	</g>
	<line fill="none" stroke="#000000" stroke-miterlimit="10" x1="490.336" y1="184.68" x2="490.336" y2="198.833"/>
	<circle fill="#FFFFFF" stroke="#000000" stroke-miterlimit="10" cx="603.233" cy="101.756" r="2.835"/>
	<circle fill="#FFFFFF" stroke="#000000" stroke-miterlimit="10" cx="603.233" cy="198.835" r="2.835"/>
	<line fill="none" stroke="#000000" stroke-miterlimit="10" x1="331.75" y1="139.575" x2="331.75" y2="101.463"/>
	<line fill="none" stroke="#000000" stroke-miterlimit="10" x1="331.75" y1="167.922" x2="331.75" y2="199.082"/>
	<rect x="326.081" y="139.575" fill="#FFFFFF" stroke="#000000" stroke-miterlimit="10" width="11.338" height="28.346"/>
	<text transform="matrix(1 0 0 1 339.4146 154.7483)" font-family="'Cambria'" font-size="12">R</text>
	<text transform="matrix(1 0 0 1 346.8677 158.7444)" font-family="'Cambria'" font-size="6.996">q</text>
	<circle stroke="#000000" stroke-miterlimit="10" cx="370.417" cy="101.216" r="1.771"/>
	<circle stroke="#000000" stroke-miterlimit="10" cx="370.417" cy="198.835" r="1.771"/>
	<rect x="578.415" y="139.764" fill="#FFFFFF" stroke="#000000" stroke-miterlimit="10" width="11.34" height="28.346"/>
	<text transform="matrix(1 0 0 1 591.5864 153.9368)" font-family="'Cambria'" font-size="12">R</text>
	<text transform="matrix(1 0 0 1 599.0396 157.9329)" font-family="'Cambria'" font-size="6.996">L</text>
	<line fill="none" stroke="#000000" stroke-miterlimit="10" x1="584.084" y1="139.764" x2="584.084" y2="102.149"/>
	<line fill="none" stroke="#000000" stroke-miterlimit="10" x1="584.084" y1="168.114" x2="584.084" y2="199.273"/>
	<circle stroke="#000000" stroke-miterlimit="10" cx="549.067" cy="198.834" r="1.771"/>
	<circle stroke="#000000" stroke-miterlimit="10" cx="584.086" cy="199.273" r="1.771"/>
	<circle stroke="#000000" stroke-miterlimit="10" cx="549.067" cy="101.71" r="1.771"/>
	<circle stroke="#000000" stroke-miterlimit="10" cx="584.086" cy="102.149" r="1.771"/>
</g>
</svg>
