<?xml version="1.0" encoding="utf-8"?>
<!-- Generator: Adobe Illustrator 16.0.0, SVG Export Plug-In . SVG Version: 6.00 Build 0)  -->
<!DOCTYPE svg PUBLIC "-//W3C//DTD SVG 1.1//EN" "http://www.w3.org/Graphics/SVG/1.1/DTD/svg11.dtd">
<svg version="1.1" id="Ebene_1" xmlns="http://www.w3.org/2000/svg" xmlns:xlink="http://www.w3.org/1999/xlink" x="0px" y="0px"
	 width="118.224px" height="146.999px" viewBox="0 0 118.224 146.999" enable-background="new 0 0 118.224 146.999"
	 xml:space="preserve">
<line fill="none" stroke="#010202" stroke-miterlimit="10" x1="40.34" y1="56.113" x2="40.34" y2="79.447"/>
<line fill="none" stroke="#010202" stroke-miterlimit="10" x1="40.34" y1="64.447" x2="57.006" y2="56.113"/>
<g>
	<g>
		<line fill="none" stroke="#010202" stroke-miterlimit="10" x1="40.34" y1="71.114" x2="50.272" y2="76.079"/>
		<g>
			<polygon fill="#010202" points="47.661,77.535 57.005,79.448 49.87,73.117 			"/>
		</g>
	</g>
</g>
<line fill="none" stroke="#010202" stroke-miterlimit="10" x1="96.674" y1="88.513" x2="96.674" y2="111.847"/>
<line fill="none" stroke="#010202" stroke-miterlimit="10" x1="96.674" y1="96.847" x2="113.34" y2="88.513"/>
<g>
	<g>
		<line fill="none" stroke="#010202" stroke-miterlimit="10" x1="96.674" y1="103.514" x2="106.606" y2="108.479"/>
		<g>
			<polygon fill="#010202" points="103.995,109.935 113.339,111.848 106.204,105.517 			"/>
		</g>
	</g>
</g>
<line fill="none" stroke="#000000" stroke-miterlimit="10" x1="96.674" y1="100.18" x2="57.005" y2="100.18"/>
<line fill="none" stroke="#000000" stroke-miterlimit="10" x1="57.005" y1="100.18" x2="57.005" y2="79.448"/>
<line fill="none" stroke="#000000" stroke-miterlimit="10" x1="40.34" y1="67.78" x2="17.069" y2="67.78"/>
<line fill="none" stroke="#000000" stroke-miterlimit="10" x1="57.006" y1="56.113" x2="57.006" y2="40.999"/>
<line fill="none" stroke="#000000" stroke-miterlimit="10" x1="57.006" y1="40.999" x2="113.34" y2="40.999"/>
<line fill="none" stroke="#000000" stroke-miterlimit="10" x1="113.34" y1="88.513" x2="113.34" y2="18.499"/>
<line fill="none" stroke="#000000" stroke-miterlimit="10" x1="113.339" y1="111.848" x2="113.339" y2="128.499"/>
<circle fill="#FFFFFF" stroke="#010202" stroke-miterlimit="10" cx="17.069" cy="67.78" r="3.333"/>
<circle fill="#FFFFFF" stroke="#010202" stroke-miterlimit="10" cx="113.34" cy="18.499" r="3.333"/>
<circle fill="#FFFFFF" stroke="#010202" stroke-miterlimit="10" cx="113.34" cy="128.499" r="3.333"/>
<text transform="matrix(1 0 0 1 108.667 9.999)" font-family="'Cambria'" font-size="12">C‘</text>
<text transform="matrix(1 0 0 1 0 71.1143)" font-family="'Cambria'" font-size="12">B‘</text>
<text transform="matrix(1 0 0 1 108.667 144.999)" font-family="'Cambria'" font-size="12">E‘</text>
</svg>
