<?xml version="1.0" encoding="UTF-8" standalone="no"?>
<!-- Created with Inkscape (http://www.inkscape.org/) -->

<svg
   xmlns:dc="http://purl.org/dc/elements/1.1/"
   xmlns:cc="http://creativecommons.org/ns#"
   xmlns:rdf="http://www.w3.org/1999/02/22-rdf-syntax-ns#"
   xmlns:svg="http://www.w3.org/2000/svg"
   xmlns="http://www.w3.org/2000/svg"
   xmlns:sodipodi="http://sodipodi.sourceforge.net/DTD/sodipodi-0.dtd"
   xmlns:inkscape="http://www.inkscape.org/namespaces/inkscape"
   width="210mm"
   height="297mm"
   id="svg2"
   version="1.1"
   inkscape:version="0.48.4 r9939"
   sodipodi:docname="dc-motor-plot2.svg">
  <sodipodi:namedview
     id="base"
     pagecolor="#ffffff"
     bordercolor="#666666"
     borderopacity="1.0"
     inkscape:pageopacity="0.0"
     inkscape:pageshadow="2"
     inkscape:zoom="2.56"
     inkscape:cx="260.10694"
     inkscape:cy="814.04121"
     inkscape:document-units="px"
     inkscape:current-layer="layer1"
     showgrid="true"
     inkscape:snap-global="true"
     inkscape:window-width="1918"
     inkscape:window-height="1059"
     inkscape:window-x="1600"
     inkscape:window-y="19"
     inkscape:window-maximized="1"
     inkscape:snap-bbox="false"
     inkscape:snap-bbox-midpoints="true"
     inkscape:snap-nodes="true"
     inkscape:snap-midpoints="true"
     inkscape:object-nodes="true"
     showguides="true"
     inkscape:guide-bbox="true">
    <inkscape:grid
       type="xygrid"
       id="grid2985"
       empspacing="5"
       visible="true"
       enabled="true"
       snapvisiblegridlinesonly="true"
       spacingx="10px"
       spacingy="10px" />
    <inkscape:grid
       type="xygrid"
       id="grid2987"
       empspacing="5"
       visible="true"
       enabled="true"
       snapvisiblegridlinesonly="true"
       color="#00ff00"
       opacity="0.1254902"
       empcolor="#00ff00"
       empopacity="0.25098039" />
  </sodipodi:namedview>
  <title
     id="title4157">symbol</title>
  <defs
     id="defs4">
    <marker
       style="overflow:visible"
       id="TriangleInM"
       refX="0.0"
       refY="0.0"
       orient="auto"
       inkscape:stockid="TriangleInM">
      <path
         transform="scale(-0.4)"
         style="fill-rule:evenodd;stroke:#000000;stroke-width:1.0pt"
         d="M 5.77,0.0 L -2.88,5.0 L -2.88,-5.0 L 5.77,0.0 z "
         id="path5391" />
    </marker>
    <marker
       style="overflow:visible"
       id="TriangleOutL"
       refX="0.0"
       refY="0.0"
       orient="auto"
       inkscape:stockid="TriangleOutL">
      <path
         transform="scale(0.8)"
         style="fill-rule:evenodd;stroke:#000000;stroke-width:1.0pt"
         d="M 5.77,0.0 L -2.88,5.0 L -2.88,-5.0 L 5.77,0.0 z "
         id="path5397" />
    </marker>
    <marker
       style="overflow:visible"
       id="TriangleOutM"
       refX="0.0"
       refY="0.0"
       orient="auto"
       inkscape:stockid="TriangleOutM">
      <path
         transform="scale(0.4)"
         style="fill-rule:evenodd;stroke:#000000;stroke-width:1.0pt"
         d="M 5.77,0.0 L -2.88,5.0 L -2.88,-5.0 L 5.77,0.0 z "
         id="path5400" />
    </marker>
    <marker
       style="overflow:visible;"
       id="Arrow2Lend"
       refX="0.0"
       refY="0.0"
       orient="auto"
       inkscape:stockid="Arrow2Lend">
      <path
         transform="scale(1.1) rotate(180) translate(1,0)"
         d="M 8.7185878,4.0337352 L -2.2072895,0.016013256 L 8.7185884,-4.0017078 C 6.9730900,-1.6296469 6.9831476,1.6157441 8.7185878,4.0337352 z "
         style="fill-rule:evenodd;stroke-width:0.62500000;stroke-linejoin:round;"
         id="path5276" />
    </marker>
    <marker
       style="overflow:visible"
       id="EmptyDiamondL"
       refX="0.0"
       refY="0.0"
       orient="auto"
       inkscape:stockid="EmptyDiamondL">
      <path
         transform="scale(0.8)"
         style="fill-rule:evenodd;fill:#FFFFFF;stroke:#000000;stroke-width:1.0pt"
         d="M 0,-7.0710768 L -7.0710894,0 L 0,7.0710589 L 7.0710462,0 L 0,-7.0710768 z "
         id="path5361" />
    </marker>
    <marker
       style="overflow:visible"
       id="Arrow2Sstart"
       refX="0.0"
       refY="0.0"
       orient="auto"
       inkscape:stockid="Arrow2Sstart">
      <path
         transform="scale(0.3) translate(-2.3,0)"
         d="M 8.7185878,4.0337352 L -2.2072895,0.016013256 L 8.7185884,-4.0017078 C 6.9730900,-1.6296469 6.9831476,1.6157441 8.7185878,4.0337352 z "
         style="fill-rule:evenodd;stroke-width:0.62500000;stroke-linejoin:round"
         id="path5285" />
    </marker>
    <marker
       style="overflow:visible"
       id="Arrow1Mstart"
       refX="0.0"
       refY="0.0"
       orient="auto"
       inkscape:stockid="Arrow1Mstart">
      <path
         transform="scale(0.4) translate(10,0)"
         style="fill-rule:evenodd;stroke:#000000;stroke-width:1.0pt"
         d="M 0.0,0.0 L 5.0,-5.0 L -12.5,0.0 L 5.0,5.0 L 0.0,0.0 z "
         id="path5261" />
    </marker>
    <marker
       style="overflow:visible"
       id="DotL"
       refX="0.0"
       refY="0.0"
       orient="auto"
       inkscape:stockid="DotL">
      <path
         transform="scale(0.8) translate(7.4, 1)"
         style="fill-rule:evenodd;stroke:#000000;stroke-width:1.0pt"
         d="M -2.5,-1.0 C -2.5,1.7600000 -4.7400000,4.0 -7.5,4.0 C -10.260000,4.0 -12.5,1.7600000 -12.5,-1.0 C -12.5,-3.7600000 -10.260000,-6.0 -7.5,-6.0 C -4.7400000,-6.0 -2.5,-3.7600000 -2.5,-1.0 z "
         id="path5316" />
    </marker>
    <marker
       style="overflow:visible"
       id="Tail"
       refX="0.0"
       refY="0.0"
       orient="auto"
       inkscape:stockid="Tail">
      <g
         transform="scale(-1.2)"
         id="g5291">
        <path
           style="fill:none;fill-rule:evenodd;stroke:#000000;stroke-width:0.8;stroke-linecap:round"
           d="M -3.8048674,-3.9585227 L 0.54352094,0"
           id="path5293" />
        <path
           style="fill:none;fill-rule:evenodd;stroke:#000000;stroke-width:0.8;stroke-linecap:round"
           d="M -1.2866832,-3.9585227 L 3.0617053,0"
           id="path5295" />
        <path
           style="fill:none;fill-rule:evenodd;stroke:#000000;stroke-width:0.8;stroke-linecap:round"
           d="M 1.3053582,-3.9585227 L 5.6537466,0"
           id="path5297" />
        <path
           style="fill:none;fill-rule:evenodd;stroke:#000000;stroke-width:0.8;stroke-linecap:round"
           d="M -3.8048674,4.1775838 L 0.54352094,0.21974226"
           id="path5299" />
        <path
           style="fill:none;fill-rule:evenodd;stroke:#000000;stroke-width:0.8;stroke-linecap:round"
           d="M -1.2866832,4.1775838 L 3.0617053,0.21974226"
           id="path5301" />
        <path
           style="fill:none;fill-rule:evenodd;stroke:#000000;stroke-width:0.8;stroke-linecap:round"
           d="M 1.3053582,4.1775838 L 5.6537466,0.21974226"
           id="path5303" />
      </g>
    </marker>
    <marker
       style="overflow:visible"
       id="Arrow1Lstart"
       refX="0.0"
       refY="0.0"
       orient="auto"
       inkscape:stockid="Arrow1Lstart">
      <path
         transform="scale(0.8) translate(12.5,0)"
         style="fill-rule:evenodd;stroke:#000000;stroke-width:1.0pt"
         d="M 0.0,0.0 L 5.0,-5.0 L -12.5,0.0 L 5.0,5.0 L 0.0,0.0 z "
         id="path5255" />
    </marker>
    <marker
       style="overflow:visible"
       id="Arrow2Lstart"
       refX="0.0"
       refY="0.0"
       orient="auto"
       inkscape:stockid="Arrow2Lstart">
      <path
         transform="scale(1.1) translate(1,0)"
         d="M 8.7185878,4.0337352 L -2.2072895,0.016013256 L 8.7185884,-4.0017078 C 6.9730900,-1.6296469 6.9831476,1.6157441 8.7185878,4.0337352 z "
         style="fill-rule:evenodd;stroke-width:0.62500000;stroke-linejoin:round"
         id="path5273" />
    </marker>
    <marker
       style="overflow:visible;"
       id="Arrow1Lend"
       refX="0.0"
       refY="0.0"
       orient="auto"
       inkscape:stockid="Arrow1Lend">
      <path
         transform="scale(0.8) rotate(180) translate(12.5,0)"
         style="fill-rule:evenodd;stroke:#000000;stroke-width:1.0pt;"
         d="M 0.0,0.0 L 5.0,-5.0 L -12.5,0.0 L 5.0,5.0 L 0.0,0.0 z "
         id="path5258" />
    </marker>
    <marker
       style="overflow:visible;"
       id="Arrow1Mend"
       refX="0.0"
       refY="0.0"
       orient="auto"
       inkscape:stockid="Arrow1Mend">
      <path
         transform="scale(0.4) rotate(180) translate(10,0)"
         style="fill-rule:evenodd;stroke:#000000;stroke-width:1.0pt;"
         d="M 0.0,0.0 L 5.0,-5.0 L -12.5,0.0 L 5.0,5.0 L 0.0,0.0 z "
         id="path5264" />
    </marker>
    <marker
       inkscape:stockid="Arrow2Mend"
       orient="auto"
       refY="0"
       refX="0"
       id="Arrow2Mend"
       style="overflow:visible">
      <path
         inkscape:connector-curvature="0"
         id="path5902"
         style="fill-rule:evenodd;stroke-width:0.625;stroke-linejoin:round"
         d="M 8.7185878,4.0337352 -2.2072895,0.01601326 8.7185884,-4.0017078 c -1.7454984,2.3720609 -1.7354408,5.6174519 -6e-7,8.035443 z"
         transform="scale(-0.6,-0.6)" />
    </marker>
    <marker
       style="overflow:visible"
       id="TriangleOutM-0"
       refX="0"
       refY="0"
       orient="auto"
       inkscape:stockid="TriangleOutM">
      <path
         transform="scale(0.4,0.4)"
         style="fill-rule:evenodd;stroke:#000000;stroke-width:1pt"
         d="m 5.77,0 -8.65,5 0,-10 8.65,5 z"
         id="path5400-0"
         inkscape:connector-curvature="0" />
    </marker>
    <marker
       style="overflow:visible"
       id="TriangleOutM-00"
       refX="0"
       refY="0"
       orient="auto"
       inkscape:stockid="TriangleOutM">
      <path
         transform="scale(0.4,0.4)"
         style="fill-rule:evenodd;stroke:#000000;stroke-width:1pt"
         d="m 5.77,0 -8.65,5 0,-10 8.65,5 z"
         id="path5400-5"
         inkscape:connector-curvature="0" />
    </marker>
    <marker
       style="overflow:visible"
       id="TriangleOutM-2"
       refX="0"
       refY="0"
       orient="auto"
       inkscape:stockid="TriangleOutM">
      <path
         transform="scale(0.4,0.4)"
         style="fill-rule:evenodd;stroke:#000000;stroke-width:1pt"
         d="m 5.77,0 -8.65,5 0,-10 8.65,5 z"
         id="path5400-6"
         inkscape:connector-curvature="0" />
    </marker>
    <marker
       style="overflow:visible"
       id="TriangleInM-8"
       refX="0"
       refY="0"
       orient="auto"
       inkscape:stockid="TriangleInM">
      <path
         transform="scale(-0.4,-0.4)"
         style="fill-rule:evenodd;stroke:#000000;stroke-width:1pt"
         d="m 5.77,0 -8.65,5 0,-10 8.65,5 z"
         id="path5391-5"
         inkscape:connector-curvature="0" />
    </marker>
    <marker
       style="overflow:visible"
       id="TriangleInM-1"
       refX="0"
       refY="0"
       orient="auto"
       inkscape:stockid="TriangleInM">
      <path
         transform="scale(-0.4,-0.4)"
         style="fill-rule:evenodd;stroke:#000000;stroke-width:1pt"
         d="m 5.77,0 -8.65,5 0,-10 8.65,5 z"
         id="path5391-1"
         inkscape:connector-curvature="0" />
    </marker>
    <marker
       style="overflow:visible"
       id="TriangleInM-89"
       refX="0"
       refY="0"
       orient="auto"
       inkscape:stockid="TriangleInM">
      <path
         transform="scale(-0.4,-0.4)"
         style="fill-rule:evenodd;stroke:#000000;stroke-width:1pt"
         d="m 5.77,0 -8.65,5 0,-10 8.65,5 z"
         id="path5391-9"
         inkscape:connector-curvature="0" />
    </marker>
    <marker
       style="overflow:visible"
       id="TriangleOutM-2-8"
       refX="0"
       refY="0"
       orient="auto"
       inkscape:stockid="TriangleOutM">
      <path
         transform="scale(0.4,0.4)"
         style="fill-rule:evenodd;stroke:#000000;stroke-width:1pt"
         d="m 5.77,0 -8.65,5 0,-10 8.65,5 z"
         id="path5400-6-5"
         inkscape:connector-curvature="0" />
    </marker>
    <marker
       style="overflow:visible"
       id="TriangleOutM-2-86"
       refX="0"
       refY="0"
       orient="auto"
       inkscape:stockid="TriangleOutM">
      <path
         transform="scale(0.4,0.4)"
         style="fill-rule:evenodd;stroke:#000000;stroke-width:1pt"
         d="m 5.77,0 -8.65,5 0,-10 8.65,5 z"
         id="path5400-6-2"
         inkscape:connector-curvature="0" />
    </marker>
    <marker
       style="overflow:visible"
       id="TriangleOutM-21"
       refX="0"
       refY="0"
       orient="auto"
       inkscape:stockid="TriangleOutM">
      <path
         transform="scale(0.4,0.4)"
         style="fill-rule:evenodd;stroke:#000000;stroke-width:1pt"
         d="m 5.77,0 -8.65,5 0,-10 8.65,5 z"
         id="path5400-57"
         inkscape:connector-curvature="0" />
    </marker>
    <marker
       style="overflow:visible"
       id="marker18947"
       refX="0"
       refY="0"
       orient="auto"
       inkscape:stockid="TriangleOutM">
      <path
         transform="scale(0.4,0.4)"
         style="fill-rule:evenodd;stroke:#000000;stroke-width:1pt"
         d="m 5.77,0 -8.65,5 0,-10 8.65,5 z"
         id="path18949"
         inkscape:connector-curvature="0" />
    </marker>
    <marker
       style="overflow:visible"
       id="marker18947-0"
       refX="0"
       refY="0"
       orient="auto"
       inkscape:stockid="TriangleOutM">
      <path
         transform="scale(0.4,0.4)"
         style="fill-rule:evenodd;stroke:#000000;stroke-width:1pt"
         d="m 5.77,0 -8.65,5 0,-10 8.65,5 z"
         id="path18949-6"
         inkscape:connector-curvature="0" />
    </marker>
    <marker
       style="overflow:visible"
       id="marker18947-8"
       refX="0"
       refY="0"
       orient="auto"
       inkscape:stockid="TriangleOutM">
      <path
         transform="scale(0.4,0.4)"
         style="fill-rule:evenodd;stroke:#000000;stroke-width:1pt"
         d="m 5.77,0 -8.65,5 0,-10 8.65,5 z"
         id="path18949-0"
         inkscape:connector-curvature="0" />
    </marker>
    <marker
       style="overflow:visible"
       id="marker18947-8-0"
       refX="0"
       refY="0"
       orient="auto"
       inkscape:stockid="TriangleOutM">
      <path
         transform="scale(0.4,0.4)"
         style="fill-rule:evenodd;stroke:#000000;stroke-width:1pt"
         d="m 5.77,0 -8.65,5 0,-10 8.65,5 z"
         id="path18949-0-5"
         inkscape:connector-curvature="0" />
    </marker>
    <marker
       style="overflow:visible"
       id="marker18947-8-5"
       refX="0"
       refY="0"
       orient="auto"
       inkscape:stockid="TriangleOutM">
      <path
         transform="scale(0.4,0.4)"
         style="fill-rule:evenodd;stroke:#000000;stroke-width:1pt"
         d="m 5.77,0 -8.65,5 0,-10 8.65,5 z"
         id="path18949-0-8"
         inkscape:connector-curvature="0" />
    </marker>
    <marker
       style="overflow:visible"
       id="TriangleInM-89-5"
       refX="0"
       refY="0"
       orient="auto"
       inkscape:stockid="TriangleInM">
      <path
         transform="scale(-0.4,-0.4)"
         style="fill-rule:evenodd;stroke:#000000;stroke-width:1pt"
         d="m 5.77,0 -8.65,5 0,-10 8.65,5 z"
         id="path5391-9-3"
         inkscape:connector-curvature="0" />
    </marker>
    <marker
       style="overflow:visible"
       id="marker18947-8-1"
       refX="0"
       refY="0"
       orient="auto"
       inkscape:stockid="TriangleOutM">
      <path
         transform="scale(0.4,0.4)"
         style="fill-rule:evenodd;stroke:#000000;stroke-width:1pt"
         d="m 5.77,0 -8.65,5 0,-10 8.65,5 z"
         id="path18949-0-0"
         inkscape:connector-curvature="0" />
    </marker>
  </defs>
  <metadata
     id="metadata7">
    <rdf:RDF>
      <cc:Work
         rdf:about="">
        <dc:format>image/svg+xml</dc:format>
        <dc:type
           rdf:resource="http://purl.org/dc/dcmitype/StillImage" />
        <dc:title>symbol</dc:title>
        <cc:license
           rdf:resource="http://creativecommons.org/licenses/by-nc-sa/3.0/" />
        <dc:creator>
          <cc:Agent>
            <dc:title>Daniel Winz, Ervin Mazlagic</dc:title>
          </cc:Agent>
        </dc:creator>
        <dc:rights>
          <cc:Agent>
            <dc:title>Daniel Winz, Ervin Mazlagic</dc:title>
          </cc:Agent>
        </dc:rights>
        <dc:publisher>
          <cc:Agent>
            <dc:title>Daniel Winz, Ervin Mazlagic</dc:title>
          </cc:Agent>
        </dc:publisher>
        <dc:source>github.com/daniw/fosaet/symbol.svg</dc:source>
        <dc:language>de-CH</dc:language>
        <dc:date>18.01.2013</dc:date>
      </cc:Work>
      <cc:License
         rdf:about="http://creativecommons.org/licenses/by-nc-sa/3.0/">
        <cc:permits
           rdf:resource="http://creativecommons.org/ns#Reproduction" />
        <cc:permits
           rdf:resource="http://creativecommons.org/ns#Distribution" />
        <cc:requires
           rdf:resource="http://creativecommons.org/ns#Notice" />
        <cc:requires
           rdf:resource="http://creativecommons.org/ns#Attribution" />
        <cc:prohibits
           rdf:resource="http://creativecommons.org/ns#CommercialUse" />
        <cc:permits
           rdf:resource="http://creativecommons.org/ns#DerivativeWorks" />
        <cc:requires
           rdf:resource="http://creativecommons.org/ns#ShareAlike" />
      </cc:License>
    </rdf:RDF>
  </metadata>
  <g
     inkscape:label="Ebene 1"
     inkscape:groupmode="layer"
     id="layer1">
    <path
       inkscape:connector-curvature="0"
       id="path44224"
       d="m 150,302.36218 0,-100"
       style="fill:none;stroke:#000000;stroke-width:1px;stroke-linecap:round;stroke-linejoin:miter;stroke-opacity:1;marker-end:url(#marker18947-8)" />
    <path
       inkscape:connector-curvature="0"
       id="path44224-9"
       d="m 150,302.36218 300,0"
       style="fill:none;stroke:#000000;stroke-width:0.99999994px;stroke-linecap:round;stroke-linejoin:miter;stroke-opacity:1;marker-end:url(#marker18947-8)" />
    <path
       inkscape:connector-curvature="0"
       id="path44488"
       d="m 150,234.86218 150,0"
       style="fill:none;stroke:#000000;stroke-width:1.99999988;stroke-linecap:butt;stroke-linejoin:miter;stroke-miterlimit:4;stroke-opacity:1;stroke-dasharray:7.99999998, 2;stroke-dashoffset:0" />
    <path
       sodipodi:nodetypes="cc"
       inkscape:connector-curvature="0"
       id="path44490"
       d="m 450,288.86218 c -150,-20.25 -150,-54 -150,-54"
       style="fill:none;stroke:#000000;stroke-width:1.99999988;stroke-linecap:butt;stroke-linejoin:miter;stroke-miterlimit:4;stroke-opacity:1;stroke-dasharray:7.99999998, 2;stroke-dashoffset:0" />
    <g
       id="g44717"
       transform="matrix(0.33,0,0,0.33,358.53826,186.76721)">
      <g
         word-spacing="normal"
         letter-spacing="normal"
         font-size-adjust="none"
         font-stretch="normal"
         font-weight="normal"
         font-variant="normal"
         font-style="normal"
         stroke-miterlimit="10.433"
         xml:space="preserve"
         transform="matrix(1.0629921,0,0,-1.0629921,-186.02362,789.27165)"
         id="content"
         style="font-style:normal;font-variant:normal;font-weight:normal;font-stretch:normal;letter-spacing:normal;word-spacing:normal;text-anchor:start;fill:none;stroke:#000000;stroke-width:3.030303;stroke-linecap:butt;stroke-linejoin:miter;stroke-miterlimit:10.43299961;stroke-opacity:1;stroke-dasharray:none;stroke-dashoffset:0"><path
           id="path44720"
           d="m 459.91,409.14 -0.02,-0.07 -0.01,-0.08 -0.02,-0.07 -0.01,-0.08 -0.04,-0.16 -0.04,-0.16 -0.03,-0.16 -0.04,-0.16 -0.04,-0.16 -0.04,-0.16 -0.01,-0.08 -0.02,-0.07 -0.02,-0.07 -0.01,-0.07 -0.02,-0.07 -0.01,-0.07 -0.01,-0.06 -0.01,-0.06 -0.01,-0.06 -0.01,-0.05 -0.01,-0.05 -0.01,-0.04 -0.01,-0.04 0,-0.04 0,-0.03 0,-0.02 c 0,-0.89 0.7,-1.35 1.43,-1.35 0.61,0 1.5,0.39 1.85,1.39 0.06,0.11 0.65,2.44 0.95,3.69 l 1.1,4.48 c 0.29,1.1 0.59,2.19 0.84,3.35 0.2,0.84 0.61,2.28 0.66,2.48 0.75,1.55 3.39,6.08 8.1,6.08 2.25,0 2.71,-1.84 2.71,-3.48 0,-3.1 -2.46,-9.47 -3.25,-11.61 -0.44,-1.14 -0.49,-1.75 -0.49,-2.3 0,-2.33 1.74,-4.08 4.08,-4.08 4.69,0 6.53,7.27 6.53,7.67 0,0.5 -0.45,0.5 -0.61,0.5 -0.48,0 -0.48,-0.15 -0.73,-0.9 -1,-3.38 -2.64,-6.17 -5.09,-6.17 -0.85,0 -1.19,0.5 -1.19,1.64 0,1.25 0.45,2.45 0.89,3.54 0.95,2.64 3.05,8.11 3.05,10.96 0,3.34 -2.15,5.32 -5.74,5.32 -4.48,0 -6.92,-3.18 -7.76,-4.32 -0.25,2.79 -2.3,4.32 -4.6,4.32 -2.28,0 -3.23,-1.93 -3.73,-2.82 -0.8,-1.71 -1.5,-4.64 -1.5,-4.85 0,-0.5 0.5,-0.5 0.61,-0.5 0.5,0 0.54,0.07 0.84,1.16 0.84,3.53 1.84,5.92 3.64,5.92 0.99,0 1.55,-0.64 1.55,-2.28 0,-1.05 -0.16,-1.61 -0.8,-4.19 z"
           inkscape:connector-curvature="0"
           style="fill:#000000;stroke-width:0" /></g>    </g>
    <g
       id="g44896"
       transform="matrix(0.33,0,0,0.33,28.818193,90.76443)">
      <g
         id="g44898"
         transform="matrix(1.0629921,0,0,-1.0629921,-186.02362,789.27165)"
         xml:space="preserve"
         stroke-miterlimit="10.433"
         font-style="normal"
         font-variant="normal"
         font-weight="normal"
         font-stretch="normal"
         font-size-adjust="none"
         letter-spacing="normal"
         word-spacing="normal"
         style="font-style:normal;font-variant:normal;font-weight:normal;font-stretch:normal;letter-spacing:normal;word-spacing:normal;text-anchor:start;fill:none;stroke:#000000;stroke-width:3.030303;stroke-linecap:butt;stroke-linejoin:miter;stroke-miterlimit:10.43299961;stroke-opacity:1;stroke-dasharray:none;stroke-dashoffset:0"><path
           d="m 501.66,436.39 0.04,0.16 0.04,0.16 0.04,0.15 0.04,0.14 0.04,0.14 0.04,0.13 0.04,0.12 0.05,0.11 0.05,0.11 0.05,0.11 0.07,0.09 0.06,0.09 0.08,0.09 0.08,0.08 0.09,0.07 0.09,0.07 0.11,0.06 0.12,0.06 0.13,0.05 0.14,0.05 0.15,0.04 0.09,0.02 0.08,0.02 0.09,0.02 0.09,0.02 0.1,0.01 0.1,0.02 0.1,0.01 0.11,0.01 0.11,0.02 0.12,0.01 0.12,0.01 0.12,0 0.13,0.01 0.13,0.01 0.14,0.01 0.14,0 0.15,0 0.15,0.01 0.16,0 0.16,0 0.17,0 0.17,0 c 1.14,0 1.6,0 1.6,1 0,0.55 -0.5,0.55 -1.35,0.55 h -6.58 c -1.29,0 -1.34,0 -1.93,-0.95 l -18.19,-28.39 -3.89,28.18 c -0.16,1.16 -0.25,1.16 -1.55,1.16 h -6.83 c -0.93,0 -1.48,0 -1.48,-0.95 0,-0.6 0.44,-0.6 1.44,-0.6 0.65,0 1.54,-0.04 2.14,-0.09 0.79,-0.11 1.09,-0.25 1.09,-0.8 0,-0.2 -0.05,-0.36 -0.19,-0.95 l -6.33,-25.36 c -0.5,-2 -1.34,-3.59 -5.39,-3.73 -0.25,0 -0.89,-0.05 -0.89,-0.96 0,-0.43 0.3,-0.59 0.71,-0.59 1.59,0 3.32,0.16 4.97,0.16 1.7,0 3.5,-0.16 5.14,-0.16 0.25,0 0.89,0 0.89,1 0,0.55 -0.55,0.55 -0.89,0.55 -2.85,0.04 -3.39,1.04 -3.39,2.18 0,0.35 0.04,0.6 0.2,1.14 l 6.76,27.16 h 0.07 l 4.28,-30.89 c 0.09,-0.59 0.14,-1.14 0.75,-1.14 0.54,0 0.84,0.55 1.09,0.89 l 20.13,31.55 h 0.04 l -7.12,-28.55 c -0.5,-1.95 -0.6,-2.34 -4.53,-2.34 -0.85,0 -1.39,0 -1.39,-0.96 0,-0.59 0.59,-0.59 0.75,-0.59 1.39,0 4.78,0.16 6.17,0.16 2.05,0 4.19,-0.16 6.23,-0.16 0.3,0 0.94,0 0.94,1 0,0.55 -0.45,0.55 -1.39,0.55 -1.84,0 -3.23,0 -3.23,0.89 0,0.2 0,0.29 0.25,1.2 z"
           id="path44900"
           inkscape:connector-curvature="0"
           style="fill:#000000;stroke-width:0" /></g>    </g>
    <path
       inkscape:connector-curvature="0"
       id="path44488-0"
       d="m 150,257.36218 150,0"
       style="fill:none;stroke:#008000;stroke-width:1.99999988;stroke-linecap:butt;stroke-linejoin:miter;stroke-miterlimit:4;stroke-opacity:1;stroke-dasharray:none;stroke-dashoffset:0" />
    <path
       sodipodi:nodetypes="cc"
       inkscape:connector-curvature="0"
       id="path44490-4"
       d="m 450,293.36218 c -150,-13.5 -150,-36 -150,-36"
       style="fill:none;stroke:#008000;stroke-width:1.99999988;stroke-linecap:butt;stroke-linejoin:miter;stroke-miterlimit:4;stroke-opacity:1;stroke-dasharray:none;stroke-dashoffset:0" />
    <path
       style="fill:none;stroke:#0000ff;stroke-width:1.99999988;stroke-linecap:butt;stroke-linejoin:miter;stroke-miterlimit:4;stroke-opacity:1;stroke-dasharray:none"
       d="m 150,302.36218 130,-90 170,0"
       id="path47555"
       inkscape:connector-curvature="0" />
    <path
       style="fill:none;stroke:#ff0000;stroke-width:1.99999988;stroke-linecap:butt;stroke-linejoin:miter;stroke-miterlimit:4;stroke-opacity:1;stroke-dasharray:11.99999997, 11.99999997;stroke-dashoffset:0"
       d="m 150,248.36218 300,0"
       id="path47557"
       inkscape:connector-curvature="0" />
    <g
       id="g47647"
       transform="matrix(0.33,0,0,0.33,319.98829,153.53167)">
      <g
         id="g47649"
         transform="matrix(1.0629921,0,0,-1.0629921,-186.02362,789.27165)"
         xml:space="preserve"
         stroke-miterlimit="10.433"
         font-style="normal"
         font-variant="normal"
         font-weight="normal"
         font-stretch="normal"
         font-size-adjust="none"
         letter-spacing="normal"
         word-spacing="normal"
         style="font-style:normal;font-variant:normal;font-weight:normal;font-stretch:normal;letter-spacing:normal;word-spacing:normal;text-anchor:start;fill:none;stroke:#000000;stroke-width:3.030303;stroke-linecap:butt;stroke-linejoin:miter;stroke-miterlimit:10.43299961;stroke-opacity:1;stroke-dasharray:none;stroke-dashoffset:0"><path
           d="m 475.59,447.92 0,0.04 0,0.04 0,0.05 0,0.04 0,0.03 0,0.04 0,0.04 0,0.03 0,0.04 0,0.03 -0.01,0.03 0,0.03 0,0.03 0,0.03 -0.01,0.03 0,0.02 -0.01,0.03 0,0.02 -0.01,0.03 0,0.02 -0.01,0.04 -0.02,0.04 -0.01,0.03 -0.02,0.03 -0.03,0.03 -0.02,0.03 -0.03,0.02 -0.03,0.02 -0.03,0.02 -0.04,0.01 -0.04,0.01 -0.04,0.02 -0.03,0 -0.02,0 -0.03,0.01 -0.02,0 -0.03,0.01 -0.03,0 -0.03,0 -0.03,0 -0.03,0 -0.04,0.01 -0.03,0 -0.04,0 -0.03,0 -0.04,0 -0.04,0 -0.04,0 -0.04,0 -0.04,0 -0.05,0 -0.04,0 c -2.24,-2.2 -5.39,-2.23 -6.83,-2.23 v -1.25 c 0.84,0 3.14,0 5.05,0.97 v -17.77 c 0,-1.16 0,-1.61 -3.49,-1.61 h -1.31 v -1.25 c 0.62,0.03 4.91,0.14 6.2,0.14 1.08,0 5.47,-0.11 6.24,-0.14 v 1.25 h -1.33 c -3.49,0 -3.49,0.45 -3.49,1.61 z"
           id="path47651"
           inkscape:connector-curvature="0"
           style="fill:#000000;stroke-width:0" /><polyline
           points="462,418 486.72,418 486.72,420.04 462,420.04 "
           id="polyline47653"
           style="fill:#000000;fill-rule:nonzero;stroke-width:0" /><path
           d="m 465.77,391.23 -0.01,-0.05 -0.02,-0.04 -0.01,-0.05 -0.02,-0.05 -0.01,-0.05 -0.01,-0.05 -0.02,-0.05 -0.01,-0.05 -0.03,-0.11 -0.03,-0.12 -0.03,-0.11 -0.02,-0.11 -0.02,-0.05 -0.01,-0.05 -0.01,-0.05 -0.01,-0.05 -0.01,-0.05 -0.01,-0.05 -0.01,-0.04 -0.01,-0.04 -0.01,-0.04 0,-0.03 -0.01,-0.03 -0.01,-0.03 0,-0.03 0,-0.02 0,0 0,-0.01 0,-0.01 0,-0.01 c 0,-0.76 0.62,-1.1 1.18,-1.1 0.63,0 1.18,0.45 1.36,0.76 0.17,0.31 0.46,1.42 0.63,2.16 0.17,0.65 0.54,2.26 0.76,3.14 0.21,0.76 0.43,1.53 0.6,2.33 0.37,1.43 0.45,1.7 1.45,3.14 0.98,1.39 2.63,3.2 5.23,3.2 2.02,0 2.05,-1.78 2.05,-2.44 0,-2.09 -1.48,-5.95 -2.05,-7.42 -0.39,-0.98 -0.53,-1.3 -0.53,-1.89 0,-1.84 1.55,-2.98 3.32,-2.98 3.48,0 5.01,4.79 5.01,5.32 0,0.46 -0.45,0.46 -0.55,0.46 -0.5,0 -0.53,-0.21 -0.67,-0.6 -0.79,-2.78 -2.29,-4.22 -3.68,-4.22 -0.74,0 -0.88,0.49 -0.88,1.22 0,0.8 0.17,1.25 0.8,2.83 0.42,1.08 1.86,4.77 1.86,6.72 0,3.39 -2.69,3.97 -4.53,3.97 -2.9,0 -4.85,-1.77 -5.9,-3.16 -0.25,2.39 -2.29,3.16 -3.73,3.16 -1.5,0 -2.3,-1.08 -2.75,-1.88 -0.77,-1.28 -1.25,-3.28 -1.25,-3.45 0,-0.45 0.48,-0.45 0.59,-0.45 0.49,0 0.52,0.11 0.77,1.04 0.52,2.07 1.19,3.77 2.55,3.77 0.9,0 1.14,-0.77 1.14,-1.7 0,-0.68 -0.32,-1.96 -0.57,-2.89 -0.23,-0.96 -0.57,-2.38 -0.76,-3.14 z"
           id="path47655"
           inkscape:connector-curvature="0"
           style="fill:#000000;stroke-width:0" /></g>    </g>
    <g
       id="g47841"
       transform="matrix(0.33,0,0,0.33,318.0226,86.583519)">
      <g
         word-spacing="normal"
         letter-spacing="normal"
         font-size-adjust="none"
         font-stretch="normal"
         font-weight="normal"
         font-variant="normal"
         font-style="normal"
         stroke-miterlimit="10.433"
         xml:space="preserve"
         transform="matrix(1.0629921,0,0,-1.0629921,-186.02362,789.27165)"
         id="g47843"
         style="font-style:normal;font-variant:normal;font-weight:normal;font-stretch:normal;letter-spacing:normal;word-spacing:normal;text-anchor:start;fill:none;stroke:#000000;stroke-width:3.030303;stroke-linecap:butt;stroke-linejoin:miter;stroke-miterlimit:10.43299961;stroke-opacity:1;stroke-dasharray:none;stroke-dashoffset:0"><path
           id="path47845"
           d="m 487.16,435 0.1,0.37 0.05,0.19 0.06,0.18 0.06,0.17 0.07,0.17 0.07,0.17 0.08,0.16 0.08,0.16 0.1,0.16 0.09,0.15 0.11,0.14 0.11,0.14 0.13,0.14 0.13,0.12 0.14,0.13 0.15,0.12 0.17,0.11 0.17,0.11 0.19,0.1 0.19,0.09 0.21,0.09 0.23,0.08 0.23,0.08 0.26,0.07 0.26,0.06 0.28,0.06 0.3,0.04 0.31,0.05 0.33,0.03 0.35,0.03 0.18,0.01 0.19,0 c 0.25,0 0.84,0.05 0.84,1 0,0.05 0,0.55 -0.64,0.55 -1.64,0 -3.39,-0.16 -5.08,-0.16 -1.7,0 -3.55,0.16 -5.19,0.16 -0.29,0 -0.89,0 -0.89,-1 0,-0.55 0.5,-0.55 0.89,-0.55 2.85,-0.04 3.39,-1.09 3.39,-2.18 0,-0.16 -0.11,-0.91 -0.15,-1.05 l -4.49,-17.8 c -1.68,-6.67 -7.42,-11 -12.4,-11 -3.38,0 -6.08,2.19 -6.08,6.47 0,0.11 0,1.7 0.55,3.89 l 4.84,19.38 c 0.44,1.79 0.55,2.29 4.19,2.29 1.28,0 1.68,0 1.68,1 0,0.55 -0.54,0.55 -0.7,0.55 -1.39,0 -4.98,-0.16 -6.37,-0.16 -1.44,0 -4.99,0.16 -6.43,0.16 -0.4,0 -0.95,0 -0.95,-1 0,-0.55 0.45,-0.55 1.41,-0.55 0.09,0 1.04,0 1.89,-0.09 0.89,-0.11 1.34,-0.16 1.34,-0.8 0,-0.31 -0.55,-2.39 -0.84,-3.54 l -1.11,-4.38 c -0.44,-1.95 -2.83,-11.36 -3.03,-12.31 -0.35,-1.39 -0.35,-2.14 -0.35,-2.89 0,-6.08 4.53,-9.56 9.77,-9.56 6.26,0 12.45,5.62 14.09,12.2 z"
           inkscape:connector-curvature="0"
           style="fill:#000000;stroke-width:0" /><path
           id="path47847"
           d="m 504.18,412.07 -0.07,0.11 -0.07,0.11 -0.07,0.1 -0.08,0.1 -0.08,0.1 -0.09,0.1 -0.08,0.09 -0.09,0.1 -0.09,0.09 -0.1,0.08 -0.1,0.09 -0.1,0.08 -0.1,0.08 -0.1,0.08 -0.11,0.07 -0.11,0.08 -0.12,0.06 -0.11,0.07 -0.12,0.06 -0.12,0.05 -0.13,0.06 -0.12,0.05 -0.13,0.04 -0.14,0.04 -0.13,0.04 -0.14,0.03 -0.14,0.03 -0.15,0.02 -0.14,0.02 -0.15,0.01 -0.15,0.01 -0.16,0 v -0.97 c 2.44,0 3.11,-2.64 3.11,-3.03 0,-0.14 -0.08,-0.39 -0.11,-0.48 l -1.64,-6.52 c -0.24,-0.98 -1,-1.67 -1.77,-2.34 -0.31,-0.27 -1.72,-1.39 -3.22,-1.39 -1.28,0 -2.53,0.9 -2.53,3.37 0,1.86 1,5.69 1.82,7.08 1.59,2.8 3.37,3.31 4.34,3.31 v 0.97 c -4.45,0 -8.98,-4.91 -8.98,-9.92 0,-3.38 2.26,-5.78 5.26,-5.78 1.88,0 3.55,1.08 4.94,2.44 0.67,-2.1 2.69,-2.44 3.59,-2.44 1.25,0 2.13,0.76 2.75,1.84 0.77,1.36 1.22,3.35 1.22,3.49 0,0.45 -0.45,0.45 -0.55,0.45 -0.5,0 -0.53,-0.14 -0.76,-1.08 -0.42,-1.67 -1.1,-3.73 -2.55,-3.73 -0.9,0 -1.15,0.76 -1.15,1.7 0,0.59 0.28,1.86 0.53,2.77 0.23,0.93 0.59,2.35 0.76,3.12 l 0.69,2.66 c 0.22,0.9 0.62,2.54 0.62,2.72 0,0.76 -0.62,1.1 -1.17,1.1 -0.59,0 -1.4,-0.42 -1.61,-1.39 z"
           inkscape:connector-curvature="0"
           style="fill:#000000;stroke-width:0" /></g>    </g>
    <g
       id="g48041"
       transform="matrix(0.33,0,0,0.33,220.94243,173.15808)">
      <g
         id="g48043"
         transform="matrix(1.0629921,0,0,-1.0629921,-186.02362,789.27165)"
         xml:space="preserve"
         stroke-miterlimit="10.433"
         font-style="normal"
         font-variant="normal"
         font-weight="normal"
         font-stretch="normal"
         font-size-adjust="none"
         letter-spacing="normal"
         word-spacing="normal"
         style="font-style:normal;font-variant:normal;font-weight:normal;font-stretch:normal;letter-spacing:normal;word-spacing:normal;text-anchor:start;fill:none;stroke:#000000;stroke-width:3.030303;stroke-linecap:butt;stroke-linejoin:miter;stroke-miterlimit:10.43299961;stroke-opacity:1;stroke-dasharray:none;stroke-dashoffset:0"><path
           d="m 477.29,439.57 0,0.01 0,0.01 0,0 0,0.01 0,0.01 0,0.01 0,0 0,0.01 0.01,0.02 0,0.03 0,0.02 0.01,0.02 0.01,0.03 0,0.03 0.01,0.02 0,0.03 0.01,0.03 0.01,0.03 0.01,0.06 0.02,0.06 0,0.03 0.01,0.02 0.01,0.03 0,0.03 0.01,0.02 0.01,0.02 0,0.02 0.01,0.02 0,0.01 0,0.01 0,0.01 0,0.01 0.01,0 0,0.01 0,0.01 0,0 0,0.01 0,0 0,0 0,0.01 c 0,0.04 0,0.5 -0.59,0.5 -0.5,0 -0.55,-0.16 -0.75,-1 l -2.89,-11.5 c -7.92,-0.25 -15.25,-6.88 -15.25,-13.66 0,-4.73 3.48,-8.67 9.56,-9.01 l 0.25,1.09 c -2.98,0.14 -6.58,1.89 -6.58,6.87 0,5.99 4.3,12.96 11.72,13.6 l -5.14,-20.47 -0.25,-1.09 c -0.39,-1.55 -0.73,-3.15 -1.14,-4.69 -0.59,-2.35 -1.09,-4.24 -1.09,-4.39 0,-0.49 0.34,-0.55 0.59,-0.55 0.25,0 0.36,0.06 0.5,0.2 0.09,0.1 0.41,1.3 0.55,2 l 1.89,7.43 0.25,1.09 5.14,20.47 c 3.78,-0.19 6.62,-2.49 6.62,-6.88 0,-5.87 -4.28,-13 -11.76,-13.59 l -0.25,-1.09 c 8.03,0.25 15.25,6.96 15.25,13.64 0,3.93 -2.64,8.53 -9.57,9.03 z"
           id="path48045"
           inkscape:connector-curvature="0"
           style="fill:#000000;stroke-width:0" /></g>    </g>
    <g
       id="g48245"
       transform="matrix(0.33,0,0,0.33,312.67181,120.46451)">
      <g
         word-spacing="normal"
         letter-spacing="normal"
         font-size-adjust="none"
         font-stretch="normal"
         font-weight="normal"
         font-variant="normal"
         font-style="normal"
         stroke-miterlimit="10.433"
         xml:space="preserve"
         transform="matrix(1.0629921,0,0,-1.0629921,-186.02362,789.27165)"
         id="g48247"
         style="font-style:normal;font-variant:normal;font-weight:normal;font-stretch:normal;letter-spacing:normal;word-spacing:normal;text-anchor:start;fill:none;stroke:#000000;stroke-width:3.030303;stroke-linecap:butt;stroke-linejoin:miter;stroke-miterlimit:10.43299961;stroke-opacity:1;stroke-dasharray:none;stroke-dashoffset:0"><path
           id="path48249"
           d="m 474.16,436.39 0.04,0.16 0.04,0.16 0.04,0.15 0.04,0.14 0.04,0.14 0.04,0.13 0.05,0.12 0.05,0.11 0.05,0.11 0.06,0.11 0.07,0.09 0.07,0.09 0.08,0.09 0.08,0.08 0.1,0.07 0.1,0.07 0.12,0.06 0.12,0.06 0.14,0.05 0.15,0.05 0.17,0.04 0.08,0.02 0.09,0.02 0.1,0.02 0.1,0.02 0.1,0.01 0.1,0.02 0.11,0.01 0.12,0.01 0.12,0.02 0.12,0.01 0.13,0.01 0.13,0 0.13,0.01 0.14,0.01 0.15,0.01 0.15,0 0.16,0 0.16,0.01 0.16,0 0.17,0 0.18,0 0.18,0 c 1.19,0 1.6,0 1.6,0.96 0,0.59 -0.55,0.59 -0.75,0.59 -1.46,0 -5.15,-0.16 -6.58,-0.16 -1.5,0 -5.13,0.16 -6.63,0.16 -0.34,0 -1,0 -1,-1 0,-0.55 0.46,-0.55 1.39,-0.55 2.1,0 3.44,0 3.44,-0.95 0,-0.25 0,-0.34 -0.09,-0.8 l -6.72,-26.84 c -0.46,-1.84 -0.61,-2.34 -4.55,-2.34 -1.14,0 -1.59,0 -1.59,-1 0,-0.55 0.61,-0.55 0.75,-0.55 1.45,0 5.08,0.16 6.53,0.16 1.5,0 5.19,-0.16 6.67,-0.16 0.41,0 1,0 1,0.95 0,0.6 -0.41,0.6 -1.5,0.6 -0.89,0 -1.14,0 -2.14,0.09 -1.05,0.11 -1.23,0.3 -1.23,0.84 0,0.41 0.09,0.8 0.18,1.16 z"
           inkscape:connector-curvature="0"
           style="fill:#000000;stroke-width:0" /><path
           id="path48251"
           d="m 492.48,401.59 -0.01,-0.07 -0.02,-0.07 -0.02,-0.07 -0.02,-0.07 -0.01,-0.08 -0.02,-0.08 -0.04,-0.15 -0.04,-0.17 -0.04,-0.16 -0.04,-0.16 -0.02,-0.07 -0.02,-0.08 -0.02,-0.08 -0.02,-0.07 -0.02,-0.07 -0.01,-0.07 -0.02,-0.07 -0.01,-0.06 -0.02,-0.06 -0.01,-0.06 -0.01,-0.05 -0.01,-0.05 -0.01,-0.04 -0.01,-0.04 0,-0.04 -0.01,-0.03 0,-0.02 0,-0.02 c 0,-0.77 0.62,-1.11 1.17,-1.11 0.64,0 1.19,0.45 1.36,0.76 0.19,0.32 0.45,1.43 0.64,2.16 0.17,0.66 0.55,2.27 0.77,3.14 0.2,0.77 0.4,1.53 0.59,2.33 0.38,1.5 0.38,1.56 1.08,2.65 1.11,1.71 2.86,3.69 5.56,3.69 1.95,0 2.06,-1.61 2.06,-2.44 0,-2.09 -1.5,-5.95 -2.06,-7.42 -0.37,-0.98 -0.51,-1.29 -0.51,-1.89 0,-1.84 1.53,-2.98 3.31,-2.98 3.48,0 5.01,4.79 5.01,5.33 0,0.45 -0.45,0.45 -0.56,0.45 -0.48,0 -0.51,-0.2 -0.65,-0.59 -0.8,-2.79 -2.3,-4.22 -3.69,-4.22 -0.74,0 -0.88,0.48 -0.88,1.22 0,0.79 0.18,1.25 0.8,2.82 0.42,1.08 1.84,4.77 1.84,6.72 0,0.56 0,2.03 -1.28,3.03 -0.59,0.46 -1.61,0.94 -3.25,0.94 -3.12,0 -5.04,-2.05 -6.15,-3.51 -0.28,2.96 -2.77,3.51 -4.54,3.51 -2.89,0 -4.84,-1.76 -5.89,-3.16 -0.25,2.4 -2.29,3.16 -3.73,3.16 -1.5,0 -2.3,-1.08 -2.75,-1.87 -0.77,-1.29 -1.25,-3.29 -1.25,-3.46 0,-0.45 0.48,-0.45 0.59,-0.45 0.49,0 0.52,0.11 0.77,1.05 0.52,2.06 1.19,3.76 2.55,3.76 0.9,0 1.14,-0.76 1.14,-1.7 0,-0.67 -0.32,-1.95 -0.57,-2.89 -0.23,-0.95 -0.57,-2.38 -0.76,-3.14 l -1.11,-4.47 c -0.14,-0.44 -0.34,-1.31 -0.34,-1.42 0,-0.77 0.62,-1.11 1.18,-1.11 0.63,0 1.17,0.45 1.36,0.76 0.17,0.32 0.46,1.43 0.63,2.16 0.17,0.66 0.54,2.27 0.76,3.14 0.21,0.77 0.42,1.53 0.6,2.33 0.37,1.44 0.45,1.7 1.45,3.14 0.98,1.39 2.63,3.2 5.23,3.2 2.02,0 2.05,-1.78 2.05,-2.44 0,-0.87 -0.09,-1.32 -0.59,-3.28 z"
           inkscape:connector-curvature="0"
           style="fill:#000000;stroke-width:0" /><path
           id="path48253"
           d="m 527.46,412.07 -0.07,0.11 -0.07,0.11 -0.08,0.1 -0.08,0.1 -0.08,0.1 -0.08,0.1 -0.09,0.09 -0.09,0.1 -0.09,0.09 -0.09,0.08 -0.1,0.09 -0.1,0.08 -0.1,0.08 -0.11,0.08 -0.1,0.07 -0.11,0.08 -0.12,0.06 -0.11,0.07 -0.12,0.06 -0.12,0.05 -0.13,0.06 -0.13,0.05 -0.13,0.04 -0.13,0.04 -0.13,0.04 -0.14,0.03 -0.14,0.03 -0.15,0.02 -0.15,0.02 -0.15,0.01 -0.15,0.01 -0.15,0 v -0.97 c 2.43,0 3.11,-2.64 3.11,-3.03 0,-0.14 -0.08,-0.39 -0.11,-0.48 l -1.64,-6.52 c -0.24,-0.98 -1,-1.67 -1.77,-2.34 -0.31,-0.27 -1.72,-1.39 -3.22,-1.39 -1.28,0 -2.53,0.9 -2.53,3.37 0,1.86 1,5.69 1.81,7.08 1.6,2.8 3.38,3.31 4.35,3.31 v 0.97 c -4.46,0 -8.99,-4.91 -8.99,-9.92 0,-3.38 2.27,-5.78 5.27,-5.78 1.87,0 3.55,1.08 4.94,2.44 0.67,-2.1 2.68,-2.44 3.59,-2.44 1.25,0 2.12,0.76 2.75,1.84 0.77,1.36 1.22,3.35 1.22,3.49 0,0.45 -0.45,0.45 -0.55,0.45 -0.5,0 -0.53,-0.14 -0.76,-1.08 -0.43,-1.67 -1.1,-3.73 -2.55,-3.73 -0.91,0 -1.16,0.76 -1.16,1.7 0,0.59 0.28,1.86 0.53,2.77 0.24,0.93 0.6,2.35 0.77,3.12 l 0.69,2.66 c 0.22,0.9 0.62,2.54 0.62,2.72 0,0.76 -0.62,1.1 -1.17,1.1 -0.59,0 -1.41,-0.42 -1.61,-1.39 z"
           inkscape:connector-curvature="0"
           style="fill:#000000;stroke-width:0" /><path
           id="path48255"
           d="m 543.03,402.45 -0.04,-0.11 -0.04,-0.12 -0.04,-0.12 -0.05,-0.12 -0.05,-0.12 -0.06,-0.13 -0.06,-0.13 -0.07,-0.12 -0.07,-0.13 -0.08,-0.13 -0.08,-0.13 -0.08,-0.12 -0.09,-0.13 -0.09,-0.12 -0.1,-0.12 -0.1,-0.12 -0.11,-0.12 -0.11,-0.11 -0.11,-0.1 -0.12,-0.1 -0.12,-0.1 -0.13,-0.09 -0.13,-0.08 -0.13,-0.08 -0.14,-0.07 -0.14,-0.06 -0.15,-0.05 -0.15,-0.05 -0.15,-0.04 -0.15,-0.02 -0.16,-0.02 -0.17,0 c -0.11,0 -1.16,0 -1.89,0.48 1.44,0.45 1.53,1.72 1.53,1.92 0,0.77 -0.59,1.3 -1.39,1.3 -0.97,0 -1.98,-0.84 -1.98,-2.14 0,-1.74 1.95,-2.53 3.65,-2.53 1.61,0 3.04,1 3.91,2.47 0.83,-1.85 2.75,-2.47 4.14,-2.47 4.02,0 6.14,4.34 6.14,5.33 0,0.45 -0.45,0.45 -0.56,0.45 -0.49,0 -0.52,-0.17 -0.66,-0.59 -0.73,-2.41 -2.83,-4.22 -4.78,-4.22 -1.39,0 -2.12,0.93 -2.12,2.26 0,0.91 0.84,4.08 1.81,7.96 0.7,2.67 2.26,3.54 3.42,3.54 0.06,0 1.14,0 1.87,-0.48 -1.1,-0.31 -1.53,-1.3 -1.53,-1.92 0,-0.77 0.6,-1.29 1.4,-1.29 0.81,0 1.95,0.66 1.95,2.13 0,1.95 -2.24,2.53 -3.63,2.53 -1.73,0 -3.14,-1.14 -3.9,-2.47 -0.63,1.44 -2.22,2.47 -4.17,2.47 -3.91,0 -6.15,-4.28 -6.15,-5.33 0,-0.45 0.5,-0.45 0.6,-0.45 0.45,0 0.48,0.14 0.67,0.59 0.86,2.72 3.06,4.22 4.76,4.22 1.16,0 2.1,-0.62 2.1,-2.29 0,-0.71 -0.42,-2.44 -0.73,-3.63 z"
           inkscape:connector-curvature="0"
           style="fill:#000000;stroke-width:0" /></g>    </g>
  </g>
</svg>
