<?xml version="1.0" encoding="utf-8"?>
<!-- Generator: Adobe Illustrator 16.0.0, SVG Export Plug-In . SVG Version: 6.00 Build 0)  -->
<!DOCTYPE svg PUBLIC "-//W3C//DTD SVG 1.1//EN" "http://www.w3.org/Graphics/SVG/1.1/DTD/svg11.dtd">
<svg version="1.1" id="Ebene_1" xmlns="http://www.w3.org/2000/svg" xmlns:xlink="http://www.w3.org/1999/xlink" x="0px" y="0px"
	 width="538.49px" height="203.753px" viewBox="0 0 538.49 203.753" enable-background="new 0 0 538.49 203.753"
	 xml:space="preserve">
<g id="Ebene_1_1_">
	<circle fill="#FFFFFF" stroke="#010202" stroke-miterlimit="10" cx="14.673" cy="164.499" r="14.173"/>
	<line fill="none" stroke="#010202" stroke-miterlimit="10" x1="14.673" y1="150.326" x2="14.673" y2="125.751"/>
	<line fill="none" stroke="#010202" stroke-miterlimit="10" x1="74.25" y1="114.085" x2="74.25" y2="137.419"/>
	<line fill="none" stroke="#010202" stroke-miterlimit="10" x1="78.917" y1="114.085" x2="78.917" y2="137.419"/>
	<line fill="none" stroke="#010202" stroke-miterlimit="10" x1="14.673" y1="125.751" x2="74.25" y2="125.753"/>
	<circle fill="#FFFFFF" stroke="#010202" stroke-miterlimit="10" cx="41.173" cy="125.752" r="2.835"/>
	<line fill="none" stroke="#010202" stroke-miterlimit="10" x1="78.917" y1="125.753" x2="167.34" y2="125.753"/>
	<line fill="none" stroke="#010202" stroke-miterlimit="10" x1="167.34" y1="110.751" x2="167.34" y2="125.753"/>
	<line fill="none" stroke="#010202" stroke-miterlimit="10" x1="184.006" y1="117.751" x2="184.006" y2="198.833"/>
	<line fill="none" stroke="#010202" stroke-miterlimit="10" x1="184.006" y1="198.833" x2="14.673" y2="198.833"/>
	<line fill="none" stroke="#010202" stroke-miterlimit="10" x1="14.673" y1="178.5" x2="14.673" y2="198.833"/>
	<circle fill="#FFFFFF" stroke="#010202" stroke-miterlimit="10" cx="41.173" cy="198.833" r="2.835"/>
	<rect x="113.673" y="57.74" fill="#FFFFFF" stroke="#010202" stroke-miterlimit="10" width="11.339" height="28.346"/>
	<rect x="113.673" y="150.992" fill="#FFFFFF" stroke="#010202" stroke-miterlimit="10" width="11.339" height="28.346"/>
	<rect x="178.336" y="57.74" fill="#FFFFFF" stroke="#010202" stroke-miterlimit="10" width="11.339" height="28.346"/>
	<line fill="none" stroke="#010202" stroke-miterlimit="10" x1="119.343" y1="86.086" x2="119.343" y2="150.992"/>
	<line fill="none" stroke="#010202" stroke-miterlimit="10" x1="119.343" y1="178.5" x2="119.343" y2="198.833"/>
	<line fill="none" stroke="#010202" stroke-miterlimit="10" x1="184.006" y1="110.751" x2="184.006" y2="86.086"/>
	<line fill="none" stroke="#010202" stroke-miterlimit="10" x1="119.343" y1="57.74" x2="119.343" y2="32.091"/>
	<line fill="none" stroke="#010202" stroke-miterlimit="10" x1="119.343" y1="32.091" x2="184.006" y2="32.091"/>
	<g>
		<g>
			<line fill="none" stroke="#010202" stroke-miterlimit="10" x1="184.006" y1="57.74" x2="184.006" y2="20.086"/>
			<g>
				<polygon fill="#010202" points="186.186,21.572 184.008,13.441 181.827,21.572 				"/>
			</g>
		</g>
	</g>
	<circle fill="#010202" stroke="#010202" stroke-miterlimit="10" cx="119.343" cy="125.752" r="1.771"/>
	<circle fill="#010202" stroke="#010202" stroke-miterlimit="10" cx="119.343" cy="198.833" r="1.771"/>
	<line fill="none" stroke="#010202" stroke-miterlimit="10" x1="184.006" y1="106.085" x2="231" y2="106.085"/>
	<text transform="matrix(1 0 0 1 127.0063 71.9136)" fill="#010202" font-family="'Cambria'" font-size="12">R</text>
	<text transform="matrix(1 0 0 1 134.4595 75.9097)" fill="#010202" font-family="'Cambria'" font-size="6.996">1</text>
	<text transform="matrix(1 0 0 1 127.0063 165.1646)" fill="#010202" font-family="'Cambria'" font-size="12">R</text>
	<text transform="matrix(1 0 0 1 134.4595 169.1606)" fill="#010202" font-family="'Cambria'" font-size="6.996">2</text>
	<text transform="matrix(1 0 0 1 191.5063 71.9136)" fill="#010202" font-family="'Cambria'" font-size="12">R</text>
	<text transform="matrix(1 0 0 1 198.9595 75.9097)" fill="#010202" font-family="'Cambria'" font-size="6.996">D</text>
	<text transform="matrix(1 0 0 1 10.5063 165.1636)" fill="#010202" font-family="'Cambria'" font-size="12">G</text>
	<text transform="matrix(1 0 0 1 10.5063 171.8276)" fill="#010202" font-family="'Cambria'" font-size="11.077">~</text>
	<text transform="matrix(1 0 0 1 178.3359 9.9995)" fill="#010202" font-family="'Cambria'" font-size="12">U</text>
	<text transform="matrix(1 0 0 1 186.1113 13.9956)" fill="#010202" font-family="'Cambria'" font-size="6.996">B</text>
	<circle fill="#010202" stroke="#010202" stroke-miterlimit="10" cx="184.006" cy="32.09" r="1.771"/>
	<line fill="none" stroke="#010202" stroke-miterlimit="10" x1="171.167" y1="115.339" x2="171.167" y2="120.166"/>
	<line fill="none" stroke="#010202" stroke-miterlimit="10" x1="171.167" y1="108.339" x2="171.167" y2="113.166"/>
	<line fill="none" stroke="#010202" stroke-miterlimit="10" x1="171.167" y1="122.419" x2="171.167" y2="127.246"/>
	<line fill="none" stroke="#010202" stroke-miterlimit="10" x1="171.167" y1="124.832" x2="184.006" y2="124.832"/>
	<g>
		<g>
			<line fill="none" stroke="#010202" stroke-miterlimit="10" x1="176.482" y1="117.751" x2="184.006" y2="117.751"/>
			<g>
				<polygon fill="#010202" points="177.672,119.496 171.167,117.751 177.672,116.007 				"/>
			</g>
		</g>
	</g>
	<line fill="none" stroke="#010202" stroke-miterlimit="10" x1="171.167" y1="110.751" x2="184.006" y2="110.751"/>
	<circle fill="#FFFFFF" stroke="#010202" stroke-miterlimit="10" cx="231" cy="106.084" r="2.835"/>
</g>
<g id="Ebene_2_1_">
	<line fill="none" stroke="#010202" stroke-miterlimit="10" x1="301.095" y1="140.914" x2="301.095" y2="119.337"/>
	<line fill="none" stroke="#010202" stroke-miterlimit="10" x1="301.095" y1="119.337" x2="395.28" y2="119.339"/>
	<line fill="none" stroke="#010202" stroke-miterlimit="10" x1="301.095" y1="169.257" x2="301.095" y2="200.417"/>
	<rect x="295.425" y="140.914" fill="#FFFFFF" stroke="#010202" stroke-miterlimit="10" width="11.338" height="28.346"/>
	<rect x="334.912" y="140.914" fill="#FFFFFF" stroke="#010202" stroke-miterlimit="10" width="11.338" height="28.346"/>
	<rect x="513.238" y="140.91" fill="#FFFFFF" stroke="#010202" stroke-miterlimit="10" width="11.34" height="28.346"/>
	<line fill="none" stroke="#010202" stroke-miterlimit="10" x1="340.58" y1="119.339" x2="340.58" y2="140.914"/>
	<line fill="none" stroke="#010202" stroke-miterlimit="10" x1="340.58" y1="169.257" x2="340.58" y2="200.417"/>
	<line fill="none" stroke="#010202" stroke-miterlimit="10" x1="440.575" y1="131.731" x2="440.575" y2="119.339"/>
	<circle fill="#010202" stroke="#010202" stroke-miterlimit="10" cx="340.58" cy="119.338" r="1.771"/>
	<circle fill="#010202" stroke="#010202" stroke-miterlimit="10" cx="340.58" cy="200.418" r="1.771"/>
	<line fill="none" stroke="#010202" stroke-miterlimit="10" x1="518.906" y1="200.417" x2="301.095" y2="200.417"/>
	<circle fill="#010202" stroke="#010202" stroke-miterlimit="10" cx="454.749" cy="200.418" r="1.771"/>
	<text transform="matrix(1 0 0 1 308.7588 155.0854)" fill="#010202" font-family="'Cambria'" font-size="12">R</text>
	<text transform="matrix(1 0 0 1 316.2119 159.0815)" fill="#010202" font-family="'Cambria'" font-size="6.996">1</text>
	<text transform="matrix(1 0 0 1 348.2432 155.0854)" fill="#010202" font-family="'Cambria'" font-size="12">R</text>
	<text transform="matrix(1 0 0 1 355.6963 159.0815)" fill="#010202" font-family="'Cambria'" font-size="6.996">2</text>
	<text transform="matrix(1 0 0 1 526.4072 155.0835)" fill="#010202" font-family="'Cambria'" font-size="12">R</text>
	<text transform="matrix(1 0 0 1 533.8604 159.0776)" fill="#010202" font-family="'Cambria'" font-size="6.996">D</text>
	
		<rect x="430.551" y="135.885" transform="matrix(-0.7071 -0.7071 0.7071 -0.7071 648.9338 560.6087)" fill="none" stroke="#010202" stroke-miterlimit="10" width="20.043" height="20.041"/>
	<line fill="none" stroke="#010202" stroke-miterlimit="10" x1="426.403" y1="145.914" x2="454.749" y2="145.914"/>
	<line fill="none" stroke="#010202" stroke-miterlimit="10" x1="440.575" y1="160.083" x2="440.575" y2="181.501"/>
	<line fill="none" stroke="#010202" stroke-miterlimit="10" x1="475.246" y1="181.501" x2="395.28" y2="181.501"/>
	<rect x="469.575" y="130.91" fill="#FFFFFF" stroke="#010202" stroke-miterlimit="10" width="11.34" height="28.346"/>
	<text transform="matrix(1 0 0 1 482.7451 143.0835)" fill="#010202" font-family="'Cambria'" font-size="12">r</text>
	<text transform="matrix(1 0 0 1 487.708 147.0776)" fill="#010202" font-family="'Cambria'" font-size="6.996">DS</text>
	<line fill="none" stroke="#010202" stroke-miterlimit="10" x1="454.749" y1="181.501" x2="454.749" y2="198.835"/>
	<line fill="none" stroke="#010202" stroke-miterlimit="10" x1="440.575" y1="119.339" x2="519.195" y2="119.339"/>
	<line fill="none" stroke="#010202" stroke-miterlimit="10" x1="475.245" y1="130.91" x2="475.245" y2="119.335"/>
	<line fill="none" stroke="#010202" stroke-miterlimit="10" x1="518.906" y1="140.91" x2="518.906" y2="119.339"/>
	<line fill="none" stroke="#010202" stroke-miterlimit="10" x1="518.906" y1="169.257" x2="518.906" y2="200.417"/>
	<g>
		<g>
			<line fill="none" stroke="#010202" stroke-miterlimit="10" x1="424.109" y1="126.932" x2="424.109" y2="160.58"/>
			<g>
				<polygon fill="#010202" points="421.929,159.093 424.107,167.223 426.287,159.093 				"/>
			</g>
		</g>
	</g>
	<circle fill="#010202" stroke="#010202" stroke-miterlimit="10" cx="475.245" cy="119.338" r="1.771"/>
	<text transform="matrix(1 0 0 1 415.4482 110.7524)" font-family="'Cambria'" font-size="12">i</text>
	<text transform="matrix(1 0 0 1 418.7822 114.7476)" font-family="'Cambria'" font-size="6.996">D</text>
	<text transform="matrix(1 0 0 1 423.4111 110.7524)" font-family="'Cambria'" font-size="12">=u</text>
	<text transform="matrix(1 0 0 1 436.6826 114.7476)" font-family="'Cambria'" font-size="6.996">GS</text>
	<text transform="matrix(1 0 0 1 444.4268 110.7524)" font-family="'Cambria'" font-size="12">·g</text>
	<text transform="matrix(1 0 0 1 453.7432 114.7476)" font-family="'Cambria'" font-size="6.996">fs</text>
	<line fill="none" stroke="#010202" stroke-miterlimit="10" x1="475.246" y1="159.255" x2="475.246" y2="181.501"/>
	<rect x="389.609" y="130.91" fill="#FFFFFF" stroke="#010202" stroke-miterlimit="10" width="11.34" height="28.346"/>
	<text transform="matrix(1 0 0 1 402.7783 143.0835)" fill="#010202" font-family="'Cambria'" font-size="12">r</text>
	<text transform="matrix(1 0 0 1 407.7412 147.0776)" fill="#010202" font-family="'Cambria'" font-size="6.996">GS</text>
	<line fill="none" stroke="#010202" stroke-miterlimit="10" x1="395.28" y1="131.322" x2="395.28" y2="119.748"/>
	<line fill="none" stroke="#010202" stroke-miterlimit="10" x1="395.28" y1="159.255" x2="395.28" y2="181.501"/>
</g>
</svg>
