<?xml version="1.0" encoding="utf-8"?>
<!-- Generator: Adobe Illustrator 16.0.0, SVG Export Plug-In . SVG Version: 6.00 Build 0)  -->
<!DOCTYPE svg PUBLIC "-//W3C//DTD SVG 1.1//EN" "http://www.w3.org/Graphics/SVG/1.1/DTD/svg11.dtd">
<svg version="1.1" xmlns="http://www.w3.org/2000/svg" xmlns:xlink="http://www.w3.org/1999/xlink" x="0px" y="0px"
	 width="482.096px" height="208.114px" viewBox="0 0 482.096 208.114" enable-background="new 0 0 482.096 208.114"
	 xml:space="preserve">
<g id="Ebene_1">
	<circle fill="#FFFFFF" stroke="#010202" stroke-miterlimit="10" cx="14.673" cy="173.499" r="14.173"/>
	<text transform="matrix(1 0 0 1 10.5063 174.1631)" fill="#010202" font-family="'Cambria'" font-size="12">G</text>
	<text transform="matrix(1 0 0 1 10.5063 180.8271)" fill="#010202" font-family="'Cambria'" font-size="11.077">~</text>
	<line fill="none" stroke="#010202" stroke-miterlimit="10" x1="14.673" y1="159.326" x2="14.673" y2="144.751"/>
	<line fill="none" stroke="#010202" stroke-miterlimit="10" x1="14.673" y1="144.751" x2="74.25" y2="144.753"/>
	<circle fill="#FFFFFF" stroke="#010202" stroke-miterlimit="10" cx="41.173" cy="144.752" r="2.834"/>
	<line fill="none" stroke="#010202" stroke-miterlimit="10" x1="78.917" y1="144.753" x2="167.34" y2="144.753"/>
	<line fill="none" stroke="#010202" stroke-miterlimit="10" x1="167.34" y1="129.751" x2="167.34" y2="144.753"/>
	<line fill="none" stroke="#010202" stroke-miterlimit="10" x1="184.006" y1="136.751" x2="184.006" y2="198.833"/>
	<line fill="none" stroke="#010202" stroke-miterlimit="10" x1="184.006" y1="198.833" x2="14.673" y2="198.833"/>
	<line fill="none" stroke="#010202" stroke-miterlimit="10" x1="14.673" y1="187.671" x2="14.673" y2="198.833"/>
	<circle fill="#FFFFFF" stroke="#010202" stroke-miterlimit="10" cx="41.173" cy="198.833" r="2.834"/>
	<rect x="113.673" y="103.58" fill="#FFFFFF" stroke="#010202" stroke-miterlimit="10" width="11.339" height="28.346"/>
	<g>
		<g>
			<line fill="none" stroke="#010202" stroke-miterlimit="10" x1="184.006" y1="54.413" x2="184.006" y2="19.587"/>
			<g>
				<polygon fill="#010202" points="186.186,20.961 184.008,13.441 181.827,20.961 				"/>
			</g>
		</g>
	</g>
	<rect x="178.336" y="43.567" fill="#FFFFFF" stroke="#010202" stroke-miterlimit="10" width="11.339" height="28.346"/>
	<line fill="none" stroke="#010202" stroke-miterlimit="10" x1="119.343" y1="131.926" x2="119.343" y2="144.996"/>
	<line fill="none" stroke="#010202" stroke-miterlimit="10" x1="119.343" y1="103.449" x2="119.343" y2="79.992"/>
	<circle fill="#010202" stroke="#010202" stroke-miterlimit="10" cx="119.343" cy="144.752" r="1.771"/>
	<line fill="none" stroke="#010202" stroke-miterlimit="10" x1="184.006" y1="117.753" x2="227.667" y2="117.753"/>
	<text transform="matrix(1 0 0 1 127.0063 117.7529)" fill="#010202" font-family="'Cambria'" font-size="12">R</text>
	<text transform="matrix(1 0 0 1 134.4595 121.749)" fill="#010202" font-family="'Cambria'" font-size="6.996">3</text>
	<text transform="matrix(1 0 0 1 191.6694 57.7407)" fill="#010202" font-family="'Cambria'" font-size="12">R</text>
	<text transform="matrix(1 0 0 1 199.1226 61.7368)" fill="#010202" font-family="'Cambria'" font-size="6.996">D</text>
	<text transform="matrix(1 0 0 1 178.3359 9.999)" fill="#010202" font-family="'Cambria'" font-size="12">U</text>
	<text transform="matrix(1 0 0 1 186.1113 13.9951)" fill="#010202" font-family="'Cambria'" font-size="6.996">B</text>
	<line fill="none" stroke="#010202" stroke-miterlimit="10" x1="171.167" y1="134.339" x2="171.167" y2="139.165"/>
	<line fill="none" stroke="#010202" stroke-miterlimit="10" x1="171.167" y1="127.339" x2="171.167" y2="132.165"/>
	<line fill="none" stroke="#010202" stroke-miterlimit="10" x1="171.167" y1="141.419" x2="171.167" y2="146.245"/>
	<line fill="none" stroke="#010202" stroke-miterlimit="10" x1="171.167" y1="143.832" x2="184.006" y2="143.832"/>
	<g>
		<g>
			<line fill="none" stroke="#010202" stroke-miterlimit="10" x1="176.482" y1="136.751" x2="184.006" y2="136.751"/>
			<g>
				<polygon fill="#010202" points="177.672,138.495 171.167,136.752 177.672,135.008 				"/>
			</g>
		</g>
	</g>
	<line fill="none" stroke="#010202" stroke-miterlimit="10" x1="171.167" y1="129.751" x2="184.006" y2="129.751"/>
	<circle fill="#FFFFFF" stroke="#010202" stroke-miterlimit="10" cx="231" cy="117.753" r="3.333"/>
	<circle fill="#010202" stroke="#010202" stroke-miterlimit="10" cx="184.101" cy="117.717" r="1.771"/>
	<line fill="none" stroke="#010202" stroke-miterlimit="10" x1="184.006" y1="71.913" x2="184.006" y2="129.751"/>
	<line fill="none" stroke="#010202" stroke-miterlimit="10" x1="74.25" y1="133.049" x2="74.25" y2="156.383"/>
	<line fill="none" stroke="#010202" stroke-miterlimit="10" x1="78.917" y1="133.049" x2="78.917" y2="156.383"/>
	<text transform="matrix(1 0 0 1 82.9937 136.7515)" font-family="'Cambria'" font-size="12">C</text>
	<text transform="matrix(0.583 0 0 0.583 89.7437 140.7476)" font-family="'Cambria'" font-size="12">2</text>
	<rect x="137.501" y="74.323" fill="#FFFFFF" stroke="#010202" stroke-miterlimit="10" width="28.346" height="11.339"/>
	<rect x="57.005" y="87.407" fill="#FFFFFF" stroke="#010202" stroke-miterlimit="10" width="11.339" height="28.346"/>
	<line fill="none" stroke="#010202" stroke-miterlimit="10" x1="45.5" y1="101.115" x2="22.166" y2="101.115"/>
	<line fill="none" stroke="#010202" stroke-miterlimit="10" x1="45.5" y1="105.782" x2="22.166" y2="105.782"/>
	<line fill="none" stroke="#010202" stroke-miterlimit="10" x1="165.847" y1="79.992" x2="184.005" y2="79.992"/>
	<line fill="none" stroke="#010202" stroke-miterlimit="10" x1="137.501" y1="79.992" x2="33.833" y2="79.992"/>
	<line fill="none" stroke="#010202" stroke-miterlimit="10" x1="33.833" y1="100.832" x2="33.833" y2="79.992"/>
	<line fill="none" stroke="#010202" stroke-miterlimit="10" x1="62.675" y1="87.407" x2="62.675" y2="79.992"/>
	<circle fill="#010202" stroke="#010202" stroke-miterlimit="10" cx="119.343" cy="79.992" r="1.771"/>
	<circle fill="#010202" stroke="#010202" stroke-miterlimit="10" cx="184.005" cy="79.992" r="1.771"/>
	<circle fill="#010202" stroke="#010202" stroke-miterlimit="10" cx="62.675" cy="79.992" r="1.771"/>
	<text transform="matrix(1 0 0 1 146.9937 67.77)" font-family="'Cambria'" font-size="12">R</text>
	<text transform="matrix(0.583 0 0 0.583 154.4468 71.7661)" font-family="'Cambria'" font-size="12">1</text>
	<text transform="matrix(1 0 0 1 70.7437 100.832)" font-family="'Cambria'" font-size="12">R</text>
	<text transform="matrix(0.583 0 0 0.583 78.1968 104.8281)" font-family="'Cambria'" font-size="12">2</text>
	<text transform="matrix(1 0 0 1 18.9937 94.0015)" font-family="'Cambria'" font-size="12">C</text>
	<text transform="matrix(0.583 0 0 0.583 25.7437 97.9976)" font-family="'Cambria'" font-size="12">1</text>
	<line fill="none" stroke="#000000" stroke-miterlimit="10" x1="33.833" y1="105.782" x2="33.833" y2="121.749"/>
	<line fill="none" stroke="#000000" stroke-miterlimit="10" x1="62.675" y1="115.753" x2="62.675" y2="121.749"/>
	<line fill="none" stroke="#000000" stroke-miterlimit="10" x1="29.087" y1="121.749" x2="38.579" y2="121.749"/>
	<line fill="none" stroke="#000000" stroke-miterlimit="10" x1="57.929" y1="121.749" x2="67.421" y2="121.749"/>
</g>
<g id="Ebene_2_1_">
	<line fill="none" stroke="#010202" stroke-miterlimit="10" x1="272.759" y1="140.913" x2="272.759" y2="108.338"/>
	<line fill="none" stroke="#010202" stroke-miterlimit="10" x1="272.759" y1="108.338" x2="313.944" y2="108.339"/>
	<line fill="none" stroke="#010202" stroke-miterlimit="10" x1="272.759" y1="169.258" x2="272.759" y2="200.418"/>
	<rect x="267.089" y="140.913" fill="#FFFFFF" stroke="#010202" stroke-miterlimit="10" width="11.338" height="28.346"/>
	<rect x="388.609" y="117.752" fill="#FFFFFF" stroke="#010202" stroke-miterlimit="10" width="11.34" height="28.346"/>
	<line fill="none" stroke="#010202" stroke-miterlimit="10" x1="359.253" y1="120.731" x2="359.253" y2="108.339"/>
	<line fill="none" stroke="#010202" stroke-miterlimit="10" x1="461.269" y1="200.418" x2="272.759" y2="200.418"/>
	<circle fill="#010202" stroke="#010202" stroke-miterlimit="10" cx="426.269" cy="200.418" r="1.771"/>
	<text transform="matrix(1 0 0 1 280.4233 155.0845)" fill="#010202" font-family="'Cambria'" font-size="12">R</text>
	<text transform="matrix(1 0 0 1 287.8765 159.0815)" fill="#010202" font-family="'Cambria'" font-size="6.996">3</text>
	
		<rect x="349.231" y="124.882" transform="matrix(0.7071 0.7071 -0.7071 0.7071 200.6019 -214.5128)" fill="none" stroke="#010202" stroke-miterlimit="10" width="20.044" height="20.042"/>
	<line fill="none" stroke="#010202" stroke-miterlimit="10" x1="345.067" y1="134.913" x2="373.413" y2="134.913"/>
	<line fill="none" stroke="#010202" stroke-miterlimit="10" x1="359.239" y1="149.084" x2="359.239" y2="154.163"/>
	<line fill="none" stroke="#010202" stroke-miterlimit="10" x1="401.779" y1="154.163" x2="310.408" y2="154.163"/>
	<line fill="none" stroke="#010202" stroke-miterlimit="10" x1="373.413" y1="154.163" x2="373.413" y2="200.418"/>
	<line fill="none" stroke="#010202" stroke-miterlimit="10" x1="359.253" y1="108.339" x2="461.269" y2="108.339"/>
	<line fill="none" stroke="#010202" stroke-miterlimit="10" x1="394.279" y1="117.752" x2="394.279" y2="108.339"/>
	<line fill="none" stroke="#010202" stroke-miterlimit="10" x1="461.269" y1="108.339" x2="461.269" y2="200.418"/>
	<g>
		<g>
			<line fill="none" stroke="#010202" stroke-miterlimit="10" x1="342.773" y1="109.764" x2="342.773" y2="143.411"/>
			<g>
				<polygon fill="#010202" points="340.593,141.925 342.771,150.055 344.951,141.925 				"/>
			</g>
		</g>
	</g>
	<text transform="matrix(1 0 0 1 334.1128 99.7515)" font-family="'Cambria'" font-size="12">i</text>
	<text transform="matrix(0.583 0 0 0.583 337.4468 103.7476)" font-family="'Cambria'" font-size="12">D</text>
	<text transform="matrix(1 0 0 1 342.0757 99.7515)" font-family="'Cambria'" font-size="12">=u</text>
	<text transform="matrix(0.583 0 0 0.583 355.3472 103.7476)" font-family="'Cambria'" font-size="12">GS</text>
	<text transform="matrix(1 0 0 1 363.0913 99.7515)" font-family="'Cambria'" font-size="12">·g</text>
	<text transform="matrix(0.583 0 0 0.583 372.4077 103.7476)" font-family="'Cambria'" font-size="12">fs</text>
	<line fill="none" stroke="#010202" stroke-miterlimit="10" x1="313.944" y1="120.322" x2="313.944" y2="108.748"/>
	<line fill="none" stroke="#010202" stroke-miterlimit="10" x1="313.944" y1="148.255" x2="313.944" y2="154.163"/>
	<line fill="none" stroke="#000000" stroke-miterlimit="10" x1="304.124" y1="124.625" x2="323.765" y2="144.266"/>
	<line fill="none" stroke="#000000" stroke-miterlimit="10" x1="323.765" y1="124.625" x2="304.124" y2="144.266"/>
	<text transform="matrix(0.583 0 0 0.583 302.3247 119.8315)" font-family="'Cambria'" font-size="26">+</text>
	<text transform="matrix(0.583 0 0 0.583 304.1235 154.6484)" font-family="'Cambria'" font-size="26">-</text>
	<circle fill="#010202" stroke="#010202" stroke-miterlimit="10" cx="394.368" cy="108.345" r="1.771"/>
	<text transform="matrix(1 0 0 1 403.7788 130.4248)" fill="#010202" font-family="'Cambria'" font-size="12">r</text>
	<text transform="matrix(0.583 0 0 0.583 408.7417 134.4209)" fill="#010202" font-family="'Cambria'" font-size="12">DS</text>
	<line fill="none" stroke="#010202" stroke-miterlimit="10" x1="394.368" y1="146.098" x2="394.368" y2="154.163"/>
	<line fill="none" stroke="#010202" stroke-miterlimit="10" x1="426.269" y1="108.124" x2="426.269" y2="200.203"/>
	<rect x="420.599" y="139.99" fill="#FFFFFF" stroke="#010202" stroke-miterlimit="10" width="11.34" height="28.346"/>
	<text transform="matrix(1 0 0 1 435.769 152.6631)" fill="#010202" font-family="'Cambria'" font-size="12">R</text>
	<text transform="matrix(0.583 0 0 0.583 443.2222 156.6592)" fill="#010202" font-family="'Cambria'" font-size="12">D</text>
	<rect x="455.599" y="139.99" fill="#FFFFFF" stroke="#010202" stroke-miterlimit="10" width="11.34" height="28.346"/>
	<text transform="matrix(1 0 0 1 470.769 152.6631)" fill="#010202" font-family="'Cambria'" font-size="12">R</text>
	<text transform="matrix(0.583 0 0 0.583 478.2222 156.6592)" fill="#010202" font-family="'Cambria'" font-size="12">1</text>
	<circle fill="#010202" stroke="#010202" stroke-miterlimit="10" cx="426.269" cy="108.339" r="1.771"/>
</g>
</svg>
