<?xml version="1.0" encoding="utf-8"?>
<!-- Generator: Adobe Illustrator 16.0.0, SVG Export Plug-In . SVG Version: 6.00 Build 0)  -->
<!DOCTYPE svg PUBLIC "-//W3C//DTD SVG 1.1//EN" "http://www.w3.org/Graphics/SVG/1.1/DTD/svg11.dtd">
<svg version="1.1" id="Ebene_1" xmlns="http://www.w3.org/2000/svg" xmlns:xlink="http://www.w3.org/1999/xlink" x="0px" y="0px"
	 width="584.438px" height="203.422px" viewBox="0 0 584.438 203.422" enable-background="new 0 0 584.438 203.422"
	 xml:space="preserve">
<g id="Ebene_1_1_">
	<circle fill="#FFFFFF" stroke="#000000" stroke-miterlimit="10" cx="14.673" cy="153.499" r="14.173"/>
	<line fill="none" stroke="#000000" stroke-miterlimit="10" x1="14.673" y1="139.326" x2="14.673" y2="117.752"/>
	<line fill="none" stroke="#000000" stroke-miterlimit="10" x1="84.006" y1="106.085" x2="84.006" y2="129.419"/>
	<line fill="none" stroke="#000000" stroke-miterlimit="10" x1="88.673" y1="106.085" x2="88.673" y2="129.419"/>
	<line fill="none" stroke="#000000" stroke-miterlimit="10" x1="14.673" y1="117.752" x2="84.006" y2="117.753"/>
	<circle fill="#FFFFFF" stroke="#000000" stroke-miterlimit="10" cx="58.673" cy="117.752" r="2.835"/>
	<line fill="none" stroke="#000000" stroke-miterlimit="10" x1="88.673" y1="117.753" x2="167.34" y2="117.753"/>
	<line fill="none" stroke="#000000" stroke-miterlimit="10" x1="167.34" y1="106.085" x2="167.34" y2="129.419"/>
	<line fill="none" stroke="#000000" stroke-miterlimit="10" x1="167.34" y1="114.419" x2="184.006" y2="106.085"/>
	<g>
		<g>
			<line fill="none" stroke="#000000" stroke-miterlimit="10" x1="167.34" y1="121.086" x2="177.271" y2="126.051"/>
			<g>
				<polygon points="174.66,127.507 184.005,129.42 176.869,123.089 				"/>
			</g>
		</g>
	</g>
	<line fill="none" stroke="#000000" stroke-miterlimit="10" x1="184.006" y1="129.419" x2="184.006" y2="198.833"/>
	<line fill="none" stroke="#000000" stroke-miterlimit="10" x1="184.006" y1="198.833" x2="14.673" y2="198.833"/>
	<line fill="none" stroke="#000000" stroke-miterlimit="10" x1="14.673" y1="167.672" x2="14.673" y2="198.833"/>
	<circle fill="#FFFFFF" stroke="#000000" stroke-miterlimit="10" cx="58.673" cy="198.832" r="2.835"/>
	<rect x="113.673" y="57.74" fill="#FFFFFF" stroke="#000000" stroke-miterlimit="10" width="11.339" height="28.346"/>
	<rect x="113.673" y="139.326" fill="#FFFFFF" stroke="#000000" stroke-miterlimit="10" width="11.339" height="28.346"/>
	<rect x="178.336" y="57.74" fill="#FFFFFF" stroke="#000000" stroke-miterlimit="10" width="11.339" height="28.346"/>
	<line fill="none" stroke="#000000" stroke-miterlimit="10" x1="119.343" y1="86.086" x2="119.343" y2="139.326"/>
	<line fill="none" stroke="#000000" stroke-miterlimit="10" x1="119.343" y1="167.672" x2="119.343" y2="198.833"/>
	<line fill="none" stroke="#000000" stroke-miterlimit="10" x1="184.006" y1="106.085" x2="184.006" y2="86.086"/>
	<line fill="none" stroke="#000000" stroke-miterlimit="10" x1="119.343" y1="57.74" x2="119.343" y2="32.091"/>
	<line fill="none" stroke="#000000" stroke-miterlimit="10" x1="119.343" y1="32.091" x2="184.006" y2="32.091"/>
	<g>
		<g>
			<line fill="none" stroke="#000000" stroke-miterlimit="10" x1="184.006" y1="57.74" x2="184.006" y2="20.086"/>
			<g>
				<polygon points="186.186,21.572 184.008,13.441 181.827,21.572 				"/>
			</g>
		</g>
	</g>
	<circle stroke="#000000" stroke-miterlimit="10" cx="119.343" cy="117.752" r="1.771"/>
	<circle stroke="#000000" stroke-miterlimit="10" cx="119.343" cy="198.832" r="1.771"/>
	<line fill="none" stroke="#000000" stroke-miterlimit="10" x1="208.673" y1="94.418" x2="208.673" y2="117.752"/>
	<line fill="none" stroke="#000000" stroke-miterlimit="10" x1="213.34" y1="94.418" x2="213.34" y2="117.752"/>
	<rect x="242.674" y="139.326" fill="#FFFFFF" stroke="#000000" stroke-miterlimit="10" width="11.338" height="28.346"/>
	<line fill="none" stroke="#000000" stroke-miterlimit="10" x1="184.006" y1="106.085" x2="208.673" y2="106.085"/>
	<line fill="none" stroke="#000000" stroke-miterlimit="10" x1="213.34" y1="106.085" x2="248.343" y2="106.085"/>
	<line fill="none" stroke="#000000" stroke-miterlimit="10" x1="248.343" y1="106.085" x2="248.343" y2="139.326"/>
	<line fill="none" stroke="#000000" stroke-miterlimit="10" x1="248.343" y1="167.672" x2="248.343" y2="198.832"/>
	<line fill="none" stroke="#000000" stroke-miterlimit="10" x1="248.343" y1="198.832" x2="184.006" y2="198.832"/>
	<circle stroke="#000000" stroke-miterlimit="10" cx="184.006" cy="198.833" r="1.771"/>
	<text transform="matrix(1 0 0 1 257.0063 153.499)" font-family="'Cambria'" font-size="12">R</text>
	<text transform="matrix(1 0 0 1 264.4595 157.4951)" font-family="'Cambria'" font-size="6.996">L</text>
	<text transform="matrix(1 0 0 1 127.0063 71.9131)" font-family="'Cambria'" font-size="12">R</text>
	<text transform="matrix(1 0 0 1 134.4595 75.9092)" font-family="'Cambria'" font-size="6.996">1</text>
	<text transform="matrix(1 0 0 1 127.0063 153.499)" font-family="'Cambria'" font-size="12">R</text>
	<text transform="matrix(1 0 0 1 134.4595 157.4951)" font-family="'Cambria'" font-size="6.996">2</text>
	<text transform="matrix(1 0 0 1 191.5063 71.9131)" font-family="'Cambria'" font-size="12">R</text>
	<text transform="matrix(1 0 0 1 198.9595 75.9092)" font-family="'Cambria'" font-size="6.996">C</text>
	<text transform="matrix(1 0 0 1 10.5063 154.499)" font-family="'Cambria'" font-size="12">G</text>
	<text transform="matrix(1 0 0 1 10.5063 161.1631)" font-family="'Cambria'" font-size="11.077">~</text>
	<text transform="matrix(1 0 0 1 178.3359 9.999)" font-family="'Cambria'" font-size="12">U</text>
	<text transform="matrix(1 0 0 1 186.1113 13.9951)" font-family="'Cambria'" font-size="6.996">B</text>
	<circle stroke="#000000" stroke-miterlimit="10" cx="184.006" cy="32.09" r="1.771"/>
</g>
<g id="Ebene_2">
	<line fill="none" stroke="#000000" stroke-miterlimit="10" x1="331.75" y1="139.329" x2="331.75" y2="117.755"/>
	<line fill="none" stroke="#000000" stroke-miterlimit="10" x1="331.75" y1="117.755" x2="389.395" y2="117.756"/>
	<line fill="none" stroke="#000000" stroke-miterlimit="10" x1="331.75" y1="167.675" x2="331.75" y2="198.835"/>
	<rect x="326.081" y="139.329" fill="#FFFFFF" stroke="#000000" stroke-miterlimit="10" width="11.338" height="28.346"/>
	<rect x="365.567" y="139.329" fill="#FFFFFF" stroke="#000000" stroke-miterlimit="10" width="11.338" height="28.346"/>
	<rect x="529.227" y="139.326" fill="#FFFFFF" stroke="#000000" stroke-miterlimit="10" width="11.34" height="28.346"/>
	<line fill="none" stroke="#000000" stroke-miterlimit="10" x1="371.235" y1="117.756" x2="371.235" y2="139.329"/>
	<line fill="none" stroke="#000000" stroke-miterlimit="10" x1="371.235" y1="167.675" x2="371.235" y2="198.835"/>
	<line fill="none" stroke="#000000" stroke-miterlimit="10" x1="471.231" y1="125.155" x2="471.231" y2="117.756"/>
	<circle stroke="#000000" stroke-miterlimit="10" cx="371.235" cy="117.755" r="1.771"/>
	<circle stroke="#000000" stroke-miterlimit="10" cx="371.235" cy="198.835" r="1.771"/>
	<rect x="558.897" y="139.329" fill="#FFFFFF" stroke="#000000" stroke-miterlimit="10" width="11.338" height="28.346"/>
	<line fill="none" stroke="#000000" stroke-miterlimit="10" x1="564.567" y1="117.756" x2="564.567" y2="139.329"/>
	<line fill="none" stroke="#000000" stroke-miterlimit="10" x1="564.567" y1="167.675" x2="564.567" y2="198.835"/>
	<line fill="none" stroke="#000000" stroke-miterlimit="10" x1="564.569" y1="198.835" x2="331.75" y2="198.835"/>
	<circle stroke="#000000" stroke-miterlimit="10" cx="485.405" cy="198.835" r="1.771"/>
	<text transform="matrix(1 0 0 1 573.231 153.502)" font-family="'Cambria'" font-size="12">R</text>
	<text transform="matrix(1 0 0 1 580.6841 157.498)" font-family="'Cambria'" font-size="6.996">L</text>
	<text transform="matrix(1 0 0 1 339.4146 153.501)" font-family="'Cambria'" font-size="12">R</text>
	<text transform="matrix(1 0 0 1 346.8677 157.498)" font-family="'Cambria'" font-size="6.996">1</text>
	<text transform="matrix(1 0 0 1 378.8989 153.502)" font-family="'Cambria'" font-size="12">R</text>
	<text transform="matrix(1 0 0 1 386.3521 157.498)" font-family="'Cambria'" font-size="6.996">2</text>
	<text transform="matrix(1 0 0 1 542.397 153.499)" font-family="'Cambria'" font-size="12">R</text>
	<text transform="matrix(1 0 0 1 549.8501 157.4941)" font-family="'Cambria'" font-size="6.996">C</text>
	<rect x="389.395" y="112.083" fill="#FFFFFF" stroke="#000000" stroke-miterlimit="10" width="28.346" height="11.338"/>
	<text transform="matrix(1 0 0 1 397.2329 104.502)" font-family="'Cambria'" font-size="12">r</text>
	<text transform="matrix(1 0 0 1 402.1958 108.498)" font-family="'Cambria'" font-size="6.996">BE</text>
	
		<rect x="461.206" y="129.303" transform="matrix(-0.7072 -0.7071 0.7071 -0.7072 705.9492 571.0337)" fill="none" stroke="#000000" stroke-miterlimit="10" width="20.043" height="20.042"/>
	<line fill="none" stroke="#000000" stroke-miterlimit="10" x1="457.059" y1="139.329" x2="485.405" y2="139.329"/>
	<line fill="none" stroke="#000000" stroke-miterlimit="10" x1="471.231" y1="153.501" x2="471.231" y2="162.586"/>
	<line fill="none" stroke="#000000" stroke-miterlimit="10" x1="485.405" y1="162.586" x2="427.752" y2="162.586"/>
	<line fill="none" stroke="#000000" stroke-miterlimit="10" x1="417.741" y1="117.752" x2="436.086" y2="117.756"/>
	<line fill="none" stroke="#000000" stroke-miterlimit="10" x1="436.086" y1="117.756" x2="436.086" y2="162.586"/>
	<rect x="500.231" y="139.326" fill="#FFFFFF" stroke="#000000" stroke-miterlimit="10" width="11.34" height="28.346"/>
	<text transform="matrix(1 0 0 1 513.4009 153.499)" font-family="'Cambria'" font-size="12">r</text>
	<text transform="matrix(1 0 0 1 518.3638 157.4941)" font-family="'Cambria'" font-size="6.996">CE</text>
	<line fill="none" stroke="#000000" stroke-miterlimit="10" x1="485.405" y1="162.586" x2="485.405" y2="197.252"/>
	<line fill="none" stroke="#000000" stroke-miterlimit="10" x1="471.231" y1="117.756" x2="564.569" y2="117.756"/>
	<line fill="none" stroke="#000000" stroke-miterlimit="10" x1="505.901" y1="139.326" x2="505.901" y2="117.752"/>
	<line fill="none" stroke="#000000" stroke-miterlimit="10" x1="534.895" y1="139.326" x2="534.895" y2="117.756"/>
	<line fill="none" stroke="#000000" stroke-miterlimit="10" x1="534.895" y1="167.675" x2="534.895" y2="198.835"/>
	<line fill="none" stroke="#000000" stroke-miterlimit="10" x1="505.901" y1="167.675" x2="505.901" y2="198.835"/>
	<text transform="matrix(1 0 0 1 445.4087 110.583)" font-family="'Cambria'" font-size="12">i</text>
	<text transform="matrix(1 0 0 1 448.7427 114.5791)" font-family="'Cambria'" font-size="6.996">c</text>
	<text transform="matrix(1 0 0 1 451.8286 110.583)" font-family="'Cambria'" font-size="12">=i</text>
	<text transform="matrix(1 0 0 1 461.8071 114.5791)" font-family="'Cambria'" font-size="6.996">b</text>
	<text transform="matrix(1 0 0 1 465.6353 110.583)" font-family="'Cambria'" font-size="12">·β</text>
	<g>
		<g>
			<line fill="none" stroke="#000000" stroke-miterlimit="10" x1="452.586" y1="117.752" x2="452.586" y2="151.398"/>
			<g>
				<polygon points="450.407,149.913 452.584,158.043 454.764,149.913 				"/>
			</g>
		</g>
	</g>
	<circle stroke="#000000" stroke-miterlimit="10" cx="505.901" cy="117.756" r="1.771"/>
	<circle stroke="#000000" stroke-miterlimit="10" cx="534.893" cy="117.756" r="1.771"/>
	<circle stroke="#000000" stroke-miterlimit="10" cx="505.901" cy="198.835" r="1.771"/>
	<circle stroke="#000000" stroke-miterlimit="10" cx="534.895" cy="198.835" r="1.771"/>
</g>
</svg>
